<svg width="50" height="50" viewBox="0 0 50 50" fill="none" xmlns="http://www.w3.org/2000/svg">
<path d="M34.7809 25V35.0309M34.7809 17.4769V17.502M47.3195 12.4615V37.5386C47.3195 40.199 46.2627 42.7504 44.3815 44.6315C42.5004 46.5127 39.949 47.5695 37.2886 47.5695H12.2115C9.55112 47.5695 6.99973 46.5127 5.11857 44.6315C3.23742 42.7504 2.1806 40.199 2.1806 37.5386V12.4615C2.1806 9.80112 3.23742 7.24973 5.11857 5.36857C6.99973 3.48742 9.55112 2.4306 12.2115 2.4306H37.2886C39.949 2.4306 42.5004 3.48742 44.3815 5.36857C46.2627 7.24973 47.3195 9.80112 47.3195 12.4615Z" stroke="#959595" stroke-width="4" stroke-linecap="round" stroke-linejoin="round"/>
<path d="M12.2115 35.0309L15.0326 27.5078M15.0326 27.5078L19.7346 14.9692L24.4366 27.5078M15.0326 27.5078H24.4366M27.2578 35.0309L24.4366 27.5078" stroke="#959595" stroke-width="4" stroke-linecap="round" stroke-linejoin="round"/>
</svg>
