<svg width="22" height="15" viewBox="0 0 22 15" fill="none" xmlns="http://www.w3.org/2000/svg">
<path d="M6.5 6.5C7.03043 6.5 7.53914 6.28929 7.91421 5.91421C8.28929 5.53914 8.5 5.03043 8.5 4.5C8.5 3.96957 8.28929 3.46086 7.91421 3.08579C7.53914 2.71071 7.03043 2.5 6.5 2.5H2V6.5H6.5ZM7.5 8.5H2V12.5H7.5C8.03043 12.5 8.53914 12.2893 8.91421 11.9142C9.28929 11.5391 9.5 11.0304 9.5 10.5C9.5 9.96957 9.28929 9.46086 8.91421 9.08579C8.53914 8.71071 8.03043 8.5 7.5 8.5ZM9.563 7.072C10.3125 7.52269 10.8937 8.20663 11.2175 9.01908C11.5413 9.83153 11.5899 10.7277 11.3559 11.5704C11.1218 12.4131 10.618 13.1559 9.92162 13.685C9.22522 14.2141 8.3746 14.5004 7.5 14.5H0V0.5H6.5C7.26166 0.499929 8.0075 0.717317 8.64985 1.12661C9.29219 1.5359 9.80432 2.12007 10.126 2.81045C10.4478 3.50083 10.5657 4.26871 10.4659 5.02381C10.3662 5.77891 10.0529 6.48983 9.563 7.073M14.5 1.5H20V3H14.5V1.5ZM22 10H14.5V10.25C14.4998 10.8677 14.7075 11.4676 15.0898 11.9528C15.4721 12.438 16.0066 12.7804 16.6073 12.9248C17.2079 13.0692 17.8396 13.0072 18.4007 12.7487C18.9617 12.4902 19.4194 12.0503 19.7 11.5H21.834C21.5293 12.6083 20.8333 13.5686 19.8748 14.203C18.9164 14.8374 17.7605 15.1029 16.6212 14.9503C15.482 14.7978 14.4367 14.2375 13.6789 13.3732C12.9212 12.509 12.5023 11.3994 12.5 10.25V8.75C12.5 7.49022 13.0004 6.28204 13.8912 5.39124C14.782 4.50045 15.9902 4 17.25 4C18.5098 4 19.718 4.50045 20.6088 5.39124C21.4996 6.28204 22 7.49022 22 8.75V10ZM19.896 8C19.7323 7.42449 19.3854 6.91805 18.9079 6.55746C18.4304 6.19687 17.8483 6.00179 17.25 6.00179C16.6517 6.00179 16.0696 6.19687 15.5921 6.55746C15.1146 6.91805 14.7677 7.42449 14.604 8H19.896Z" fill="#BABABA"/>
</svg>
