<svg xmlns="http://www.w3.org/2000/svg" xmlns:xlink="http://www.w3.org/1999/xlink" width="150" zoomAndPan="magnify" viewBox="0 0 112.5 112.499997" height="150" preserveAspectRatio="xMidYMid meet" version="1.2"><defs><clipPath id="9257eb6353"><path d="M 11.199219 9.113281 L 102.890625 9.113281 L 102.890625 100.800781 L 11.199219 100.800781 Z M 11.199219 9.113281 "/></clipPath><clipPath id="37d7cb47f6"><path d="M 57.042969 9.113281 C 31.726562 9.113281 11.199219 29.636719 11.199219 54.957031 C 11.199219 80.277344 31.726562 100.800781 57.042969 100.800781 C 82.363281 100.800781 102.890625 80.277344 102.890625 54.957031 C 102.890625 29.636719 82.363281 9.113281 57.042969 9.113281 Z M 57.042969 9.113281 "/></clipPath><clipPath id="6ec7188495"><path d="M 0.199219 0.113281 L 91.890625 0.113281 L 91.890625 91.800781 L 0.199219 91.800781 Z M 0.199219 0.113281 "/></clipPath><clipPath id="a7054a2b82"><path d="M 46.042969 0.113281 C 20.726562 0.113281 0.199219 20.636719 0.199219 45.957031 C 0.199219 71.277344 20.726562 91.800781 46.042969 91.800781 C 71.363281 91.800781 91.890625 71.277344 91.890625 45.957031 C 91.890625 20.636719 71.363281 0.113281 46.042969 0.113281 Z M 46.042969 0.113281 "/></clipPath><clipPath id="f1dff25f1b"><rect x="0" width="92" y="0" height="92"/></clipPath><clipPath id="9fcc24f8aa"><path d="M 34.398438 27.957031 L 79.945312 27.957031 L 79.945312 69 L 34.398438 69 Z M 34.398438 27.957031 "/></clipPath><clipPath id="f15e36e193"><path d="M 36 66 L 59 66 L 59 83.957031 L 36 83.957031 Z M 36 66 "/></clipPath></defs><g id="9df5846579"><g clip-rule="nonzero" clip-path="url(#9257eb6353)"><g clip-rule="nonzero" clip-path="url(#37d7cb47f6)"><g transform="matrix(1,0,0,1,11,9)"><g clip-path="url(#f1dff25f1b)"><g clip-rule="nonzero" clip-path="url(#6ec7188495)"><g clip-rule="nonzero" clip-path="url(#a7054a2b82)"><path style=" stroke:none;fill-rule:nonzero;fill:#ffffff;fill-opacity:1;" d="M 0.199219 0.113281 L 91.890625 0.113281 L 91.890625 91.800781 L 0.199219 91.800781 Z M 0.199219 0.113281 "/></g></g></g></g></g></g><g clip-rule="nonzero" clip-path="url(#9fcc24f8aa)"><path style=" stroke:none;fill-rule:nonzero;fill:#006502;fill-opacity:1;" d="M 41.191406 64.410156 C 41.40625 67 43.996094 68.941406 46.367188 68.941406 C 50.464844 68.941406 54.347656 64.410156 56.503906 62.902344 C 58.660156 61.390625 64.484375 60.742188 69.445312 55.351562 C 74.191406 50.175781 74.410156 39.605469 79.585938 35.9375 C 76.996094 30.761719 66.425781 27.957031 62.761719 27.957031 C 60.171875 29.683594 43.777344 34.429688 42.269531 35.722656 C 40.757812 37.015625 34.503906 46.292969 34.503906 48.664062 C 34.503906 49.527344 36.875 57.722656 39.03125 62.253906 C 39.25 60.742188 41.40625 56.429688 44.425781 54.917969 C 44.210938 51.898438 43.132812 50.390625 43.132812 50.390625 C 47.015625 49.527344 49.171875 44.996094 49.171875 44.996094 C 51.976562 47.585938 58.445312 45.859375 58.445312 45.859375 C 56.71875 46.9375 51.976562 53.625 51.976562 53.625 C 51.976562 53.625 40.542969 57.9375 41.191406 64.410156 Z M 41.191406 64.410156 "/></g><g clip-rule="nonzero" clip-path="url(#f15e36e193)"><path style=" stroke:none;fill-rule:nonzero;fill:#006502;fill-opacity:1;" d="M 46.367188 71.097656 C 43.996094 71.097656 41.621094 69.804688 40.328125 67.863281 L 39.25 66.136719 C 37.738281 68.292969 36.660156 70.664062 36.660156 73.253906 C 36.660156 79.292969 41.40625 84.039062 47.445312 84.039062 C 53.484375 84.039062 58.230469 79.292969 58.230469 73.253906 C 58.230469 70.664062 57.367188 68.292969 55.640625 66.351562 C 53.269531 68.507812 50.035156 71.097656 46.367188 71.097656 Z M 46.367188 71.097656 "/></g></g></svg>