<svg xmlns="http://www.w3.org/2000/svg" xmlns:xlink="http://www.w3.org/1999/xlink" width="150" zoomAndPan="magnify" viewBox="0 0 112.5 112.499997" height="150" preserveAspectRatio="xMidYMid meet" version="1.2"><defs><clipPath id="27bdcc71cc"><path d="M 47 11.199219 L 65 11.199219 L 65 77 L 47 77 Z M 47 11.199219 "/></clipPath><clipPath id="d67374bbfc"><path d="M 11.199219 85 L 56 85 L 56 94.082031 L 11.199219 94.082031 Z M 11.199219 85 "/></clipPath><clipPath id="63a6704a79"><path d="M 56 85 L 100.800781 85 L 100.800781 94.082031 L 56 94.082031 Z M 56 85 "/></clipPath></defs><g id="0cd37309fc"><g clip-rule="nonzero" clip-path="url(#27bdcc71cc)"><path style=" stroke:none;fill-rule:evenodd;fill:#1f8578;fill-opacity:1;" d="M 61.414062 38.980469 L 61.414062 43.285156 L 62.246094 43.285156 L 62.246094 52.335938 C 62.246094 52.335938 62.15625 57.078125 64.046875 58.976562 C 64.046875 58.976562 56.476562 67.808594 56.476562 76.855469 L 56.476562 60.945312 C 57.167969 60.699219 57.65625 60.042969 57.65625 59.269531 C 57.65625 58.285156 56.863281 57.488281 55.882812 57.488281 C 54.898438 57.488281 54.105469 58.285156 54.105469 59.269531 C 54.105469 60.042969 54.597656 60.699219 55.285156 60.945312 L 55.285156 76.855469 C 55.285156 67.808594 47.714844 58.976562 47.714844 58.976562 C 49.605469 57.078125 49.515625 52.335938 49.515625 52.335938 L 49.515625 43.285156 L 50.347656 43.285156 L 50.347656 38.980469 L 49.878906 38.980469 C 45.996094 33.648438 54.417969 31.078125 54.417969 31.078125 C 54.417969 30.175781 54.882812 29.636719 55.445312 29.453125 L 55.445312 27.097656 C 51.320312 26.828125 48.058594 23.390625 48.058594 19.1875 C 48.058594 14.808594 51.601562 11.257812 55.96875 11.257812 C 56.339844 11.257812 56.699219 11.28125 57.054688 11.332031 C 54.25 11.78125 52.101562 14.21875 52.101562 17.160156 C 52.101562 20.421875 54.738281 23.0625 57.992188 23.0625 C 60.925781 23.0625 63.355469 20.914062 63.804688 18.097656 C 63.851562 18.453125 63.878906 18.816406 63.878906 19.1875 C 63.878906 23.449219 60.523438 26.925781 56.320312 27.109375 L 56.320312 29.453125 C 56.878906 29.636719 57.34375 30.175781 57.34375 31.078125 C 57.34375 31.078125 65.765625 33.648438 61.882812 38.980469 Z M 61.414062 38.980469 "/></g><path style=" stroke:none;fill-rule:evenodd;fill:#1f8578;fill-opacity:1;" d="M 56 90.574219 L 90.886719 72.246094 L 77.859375 65 L 56.511719 79.15625 L 55.882812 88.773438 L 55.25 79.15625 L 33.90625 65 L 20.878906 72.246094 L 55.765625 90.574219 L 55.882812 90.636719 Z M 56 90.574219 "/><path style=" stroke:none;fill-rule:evenodd;fill:#1f8578;fill-opacity:1;" d="M 20.878906 74.859375 L 56 93.1875 L 14.3125 79.703125 Z M 20.878906 74.859375 "/><g clip-rule="nonzero" clip-path="url(#d67374bbfc)"><path style=" stroke:none;fill-rule:evenodd;fill:#1f8578;fill-opacity:1;" d="M 17.34375 85.441406 L 56 94.027344 L 11.199219 93.652344 Z M 17.34375 85.441406 "/></g><path style=" stroke:none;fill-rule:evenodd;fill:#1f8578;fill-opacity:1;" d="M 91.121094 74.859375 L 56 93.1875 L 97.6875 79.703125 Z M 91.121094 74.859375 "/><g clip-rule="nonzero" clip-path="url(#63a6704a79)"><path style=" stroke:none;fill-rule:evenodd;fill:#1f8578;fill-opacity:1;" d="M 94.65625 85.441406 L 56 94.027344 L 100.796875 93.652344 Z M 94.65625 85.441406 "/></g></g></svg>