<svg xmlns="http://www.w3.org/2000/svg" xmlns:xlink="http://www.w3.org/1999/xlink" width="150" zoomAndPan="magnify" viewBox="0 0 112.5 112.499997" height="150" preserveAspectRatio="xMidYMid meet" version="1.2"><defs><clipPath id="6f8b84ba74"><path d="M 0 0 L 112.003906 0 L 112.003906 112.003906 L 0 112.003906 Z M 0 0 "/></clipPath><clipPath id="619b1a6e40"><path d="M 12.195312 12.195312 L 101 12.195312 L 101 101 L 12.195312 101 Z M 12.195312 12.195312 "/></clipPath></defs><g id="2ea4f6fa7a"><g clip-rule="nonzero" clip-path="url(#6f8b84ba74)"><path style=" stroke:none;fill-rule:nonzero;fill:#ffffff;fill-opacity:1;" d="M 0 0 L 112.003906 0 L 112.003906 112.003906 L 0 112.003906 Z M 0 0 "/><path style=" stroke:none;fill-rule:nonzero;fill:#ffffff;fill-opacity:1;" d="M 0 0 L 112.003906 0 L 112.003906 112.003906 L 0 112.003906 Z M 0 0 "/></g><g clip-rule="nonzero" clip-path="url(#619b1a6e40)"><path style=" stroke:none;fill-rule:nonzero;fill:#e88117;fill-opacity:1;" d="M 100.792969 56.492188 C 100.792969 57.945312 100.722656 59.390625 100.578125 60.835938 C 100.4375 62.28125 100.222656 63.710938 99.941406 65.136719 C 99.660156 66.558594 99.304688 67.964844 98.886719 69.351562 C 98.464844 70.742188 97.976562 72.105469 97.421875 73.445312 C 96.867188 74.785156 96.246094 76.097656 95.5625 77.375 C 94.878906 78.65625 94.132812 79.898438 93.328125 81.105469 C 92.519531 82.3125 91.65625 83.476562 90.738281 84.597656 C 89.816406 85.71875 88.84375 86.792969 87.816406 87.816406 C 86.792969 88.84375 85.71875 89.816406 84.597656 90.738281 C 83.476562 91.65625 82.3125 92.519531 81.105469 93.328125 C 79.898438 94.132812 78.65625 94.878906 77.375 95.5625 C 76.097656 96.246094 74.785156 96.867188 73.445312 97.421875 C 72.105469 97.976562 70.742188 98.464844 69.351562 98.886719 C 67.964844 99.304688 66.558594 99.660156 65.136719 99.941406 C 63.710938 100.222656 62.28125 100.4375 60.835938 100.578125 C 59.390625 100.722656 57.945312 100.792969 56.492188 100.792969 C 55.042969 100.792969 53.59375 100.722656 52.152344 100.578125 C 50.707031 100.4375 49.273438 100.222656 47.851562 99.941406 C 46.429688 99.660156 45.023438 99.304688 43.632812 98.886719 C 42.246094 98.464844 40.882812 97.976562 39.539062 97.421875 C 38.199219 96.867188 36.890625 96.246094 35.609375 95.5625 C 34.332031 94.878906 33.089844 94.132812 31.882812 93.328125 C 30.675781 92.519531 29.511719 91.65625 28.390625 90.738281 C 27.269531 89.816406 26.195312 88.84375 25.167969 87.816406 C 24.144531 86.792969 23.171875 85.71875 22.25 84.597656 C 21.328125 83.476562 20.464844 82.3125 19.660156 81.105469 C 18.855469 79.898438 18.109375 78.65625 17.425781 77.375 C 16.742188 76.097656 16.121094 74.785156 15.566406 73.445312 C 15.011719 72.105469 14.523438 70.742188 14.101562 69.351562 C 13.679688 67.964844 13.328125 66.558594 13.046875 65.136719 C 12.761719 63.710938 12.550781 62.28125 12.40625 60.835938 C 12.265625 59.390625 12.195312 57.945312 12.195312 56.492188 C 12.195312 55.042969 12.265625 53.59375 12.40625 52.152344 C 12.550781 50.707031 12.761719 49.273438 13.046875 47.851562 C 13.328125 46.429688 13.679688 45.023438 14.101562 43.632812 C 14.523438 42.246094 15.011719 40.882812 15.566406 39.539062 C 16.121094 38.199219 16.742188 36.890625 17.425781 35.609375 C 18.109375 34.332031 18.855469 33.089844 19.660156 31.882812 C 20.464844 30.675781 21.328125 29.511719 22.25 28.390625 C 23.171875 27.269531 24.144531 26.195312 25.167969 25.167969 C 26.195312 24.144531 27.269531 23.171875 28.390625 22.25 C 29.511719 21.328125 30.675781 20.464844 31.882812 19.660156 C 33.089844 18.855469 34.332031 18.109375 35.609375 17.425781 C 36.890625 16.742188 38.199219 16.121094 39.539062 15.566406 C 40.882812 15.011719 42.246094 14.523438 43.632812 14.101562 C 45.023438 13.679688 46.429688 13.328125 47.851562 13.046875 C 49.273438 12.761719 50.707031 12.550781 52.152344 12.40625 C 53.59375 12.265625 55.042969 12.195312 56.492188 12.195312 C 57.945312 12.195312 59.390625 12.265625 60.835938 12.40625 C 62.28125 12.550781 63.710938 12.761719 65.136719 13.046875 C 66.558594 13.328125 67.964844 13.679688 69.351562 14.101562 C 70.742188 14.523438 72.105469 15.011719 73.445312 15.566406 C 74.785156 16.121094 76.097656 16.742188 77.375 17.425781 C 78.65625 18.109375 79.898438 18.855469 81.105469 19.660156 C 82.3125 20.464844 83.476562 21.328125 84.597656 22.25 C 85.71875 23.171875 86.792969 24.144531 87.816406 25.167969 C 88.84375 26.195312 89.816406 27.269531 90.738281 28.390625 C 91.65625 29.511719 92.519531 30.675781 93.328125 31.882812 C 94.132812 33.089844 94.878906 34.332031 95.5625 35.609375 C 96.246094 36.890625 96.867188 38.199219 97.421875 39.539062 C 97.976562 40.882812 98.464844 42.246094 98.886719 43.632812 C 99.304688 45.023438 99.660156 46.429688 99.941406 47.851562 C 100.222656 49.273438 100.4375 50.707031 100.578125 52.152344 C 100.722656 53.59375 100.792969 55.042969 100.792969 56.492188 Z M 100.792969 56.492188 "/></g><path style=" stroke:none;fill-rule:nonzero;fill:#ffffff;fill-opacity:1;" d="M 84.125 83.554688 L 79.972656 83.554688 L 79.972656 52.25 L 73.382812 52.25 L 73.382812 83.554688 L 66.535156 83.554688 L 66.535156 59.6875 L 59.945312 59.6875 L 59.945312 83.535156 L 53.097656 83.535156 L 53.097656 67.050781 L 46.507812 67.050781 L 46.507812 83.535156 L 39.660156 83.535156 L 39.660156 63.804688 L 33.070312 63.804688 L 33.070312 83.535156 L 28.917969 83.535156 C 28.511719 83.535156 28.199219 83.828125 28.199219 84.179688 C 28.199219 84.53125 28.53125 84.828125 28.917969 84.828125 L 84.160156 84.828125 C 84.566406 84.828125 84.882812 84.53125 84.882812 84.179688 C 84.882812 83.828125 84.511719 83.554688 84.125 83.554688 Z M 84.125 83.554688 "/><path style=" stroke:none;fill-rule:nonzero;fill:#ffffff;fill-opacity:1;" d="M 71.445312 44.828125 L 49.832031 60.257812 L 43.851562 54.832031 C 43.609375 54.609375 43.242188 54.574219 42.945312 54.738281 L 34.675781 59.316406 C 34.34375 59.503906 34.234375 59.90625 34.4375 60.203125 C 34.640625 60.515625 35.101562 60.609375 35.433594 60.40625 L 43.222656 56.105469 L 49.257812 61.585938 C 49.40625 61.71875 49.589844 61.773438 49.773438 61.773438 C 49.941406 61.773438 50.089844 61.71875 50.234375 61.625 L 72.347656 45.84375 L 74.378906 48.167969 C 74.527344 48.335938 74.730469 48.410156 74.953125 48.410156 C 74.988281 48.410156 75.023438 48.410156 75.042969 48.410156 C 75.300781 48.371094 75.523438 48.222656 75.617188 48.003906 L 78.605469 41.394531 C 78.699219 41.171875 78.660156 40.933594 78.496094 40.75 C 78.328125 40.5625 78.089844 40.472656 77.832031 40.507812 L 69.929688 41.503906 C 69.671875 41.542969 69.449219 41.691406 69.359375 41.910156 C 69.265625 42.132812 69.304688 42.375 69.449219 42.558594 Z M 71.445312 44.828125 "/><path style=" stroke:none;fill-rule:nonzero;fill:#ffffff;fill-opacity:1;" d="M 37.019531 42.261719 L 35.914062 42.261719 C 36.058594 43.445312 36.578125 44.515625 37.371094 45.398438 L 38.144531 44.699219 C 38.421875 44.441406 38.882812 44.441406 39.179688 44.699219 C 39.457031 44.957031 39.457031 45.363281 39.179688 45.621094 L 38.40625 46.324219 C 39.382812 47.023438 40.601562 47.503906 41.910156 47.632812 L 41.910156 46.636719 C 41.910156 46.285156 42.242188 45.992188 42.632812 45.992188 C 43.039062 45.992188 43.351562 46.285156 43.351562 46.636719 L 43.351562 47.632812 C 44.679688 47.503906 45.878906 47.042969 46.859375 46.324219 L 46.082031 45.621094 C 45.804688 45.363281 45.804688 44.957031 46.082031 44.699219 C 46.359375 44.441406 46.820312 44.441406 47.117188 44.699219 L 47.890625 45.398438 C 48.6875 44.515625 49.203125 43.445312 49.351562 42.261719 L 48.242188 42.261719 C 47.835938 42.261719 47.523438 41.96875 47.523438 41.617188 C 47.523438 41.265625 47.855469 40.96875 48.242188 40.96875 L 49.351562 40.96875 C 49.203125 39.789062 48.6875 38.71875 47.890625 37.832031 L 47.117188 38.535156 C 46.96875 38.664062 46.785156 38.71875 46.601562 38.71875 C 46.414062 38.71875 46.230469 38.664062 46.082031 38.535156 C 45.804688 38.273438 45.804688 37.871094 46.082031 37.609375 L 46.859375 36.910156 C 45.878906 36.207031 44.660156 35.726562 43.351562 35.597656 L 43.351562 36.59375 C 43.351562 36.945312 43.019531 37.242188 42.632812 37.242188 C 42.226562 37.242188 41.910156 36.945312 41.910156 36.59375 L 41.910156 35.597656 C 40.582031 35.726562 39.382812 36.191406 38.40625 36.910156 L 39.179688 37.609375 C 39.457031 37.871094 39.457031 38.273438 39.179688 38.535156 C 39.03125 38.664062 38.847656 38.71875 38.664062 38.71875 C 38.476562 38.71875 38.292969 38.664062 38.144531 38.535156 L 37.371094 37.832031 C 36.578125 38.71875 36.058594 39.789062 35.914062 40.96875 L 37.019531 40.96875 C 37.425781 40.96875 37.738281 41.265625 37.738281 41.617188 C 37.738281 41.984375 37.425781 42.261719 37.019531 42.261719 Z M 41.910156 39.050781 C 41.910156 38.699219 42.242188 38.40625 42.632812 38.40625 C 43.039062 38.40625 43.351562 38.699219 43.351562 39.050781 L 43.351562 41.359375 L 45.085938 42.910156 C 45.363281 43.167969 45.363281 43.574219 45.085938 43.832031 C 44.9375 43.960938 44.753906 44.015625 44.570312 44.015625 C 44.386719 44.015625 44.199219 43.960938 44.050781 43.832031 L 42.097656 42.078125 C 41.96875 41.949219 41.875 41.78125 41.875 41.617188 Z M 41.910156 39.050781 "/><path style=" stroke:none;fill-rule:nonzero;fill:#ffffff;fill-opacity:1;" d="M 31.464844 42.464844 C 31.484375 42.464844 31.484375 42.464844 31.464844 42.464844 C 31.871094 42.464844 32.203125 42.171875 32.183594 41.800781 C 32.183594 41.746094 32.183594 41.671875 32.183594 41.617188 C 32.183594 40.859375 32.277344 40.121094 32.480469 39.382812 C 32.570312 39.03125 32.332031 38.679688 31.945312 38.589844 C 31.558594 38.496094 31.167969 38.71875 31.058594 39.070312 C 30.835938 39.898438 30.726562 40.75 30.726562 41.597656 C 30.726562 41.671875 30.726562 41.726562 30.726562 41.800781 C 30.746094 42.1875 31.078125 42.464844 31.464844 42.464844 Z M 31.464844 42.464844 "/><path style=" stroke:none;fill-rule:nonzero;fill:#ffffff;fill-opacity:1;" d="M 31.703125 43.757812 C 31.316406 43.851562 31.09375 44.21875 31.207031 44.570312 C 31.484375 45.457031 31.90625 46.304688 32.441406 47.097656 C 32.570312 47.300781 32.8125 47.410156 33.070312 47.410156 C 33.199219 47.410156 33.328125 47.375 33.4375 47.320312 C 33.789062 47.136719 33.902344 46.730469 33.679688 46.433594 C 33.21875 45.730469 32.847656 44.992188 32.609375 44.21875 C 32.480469 43.851562 32.09375 43.648438 31.703125 43.757812 Z M 31.703125 43.757812 "/><path style=" stroke:none;fill-rule:nonzero;fill:#ffffff;fill-opacity:1;" d="M 34.324219 48.316406 C 34.046875 48.574219 34.046875 48.980469 34.34375 49.238281 C 35.082031 49.886719 35.914062 50.4375 36.816406 50.882812 C 36.929688 50.9375 37.058594 50.972656 37.167969 50.972656 C 37.425781 50.972656 37.667969 50.863281 37.796875 50.640625 C 38 50.328125 37.871094 49.941406 37.519531 49.757812 C 36.726562 49.367188 36.003906 48.871094 35.339844 48.296875 C 35.082031 48.058594 34.621094 48.058594 34.324219 48.316406 Z M 34.324219 48.316406 "/><path style=" stroke:none;fill-rule:nonzero;fill:#ffffff;fill-opacity:1;" d="M 45.601562 51.878906 C 45.660156 51.878906 45.730469 51.878906 45.789062 51.859375 C 46.785156 51.621094 47.746094 51.25 48.628906 50.789062 C 48.980469 50.605469 49.089844 50.21875 48.890625 49.902344 C 48.6875 49.589844 48.242188 49.496094 47.890625 49.664062 C 47.117188 50.070312 46.269531 50.382812 45.398438 50.605469 C 45.011719 50.699219 44.792969 51.066406 44.902344 51.398438 C 44.992188 51.695312 45.289062 51.878906 45.601562 51.878906 Z M 45.601562 51.878906 "/><path style=" stroke:none;fill-rule:nonzero;fill:#ffffff;fill-opacity:1;" d="M 42.632812 52.25 L 42.742188 52.25 C 43.148438 52.25 43.460938 51.953125 43.460938 51.601562 C 43.460938 51.25 43.128906 50.957031 42.742188 50.957031 L 42.632812 50.957031 C 41.765625 50.957031 40.878906 50.863281 40.046875 50.660156 C 39.660156 50.570312 39.273438 50.789062 39.160156 51.121094 C 39.070312 51.472656 39.289062 51.824219 39.679688 51.914062 C 40.636719 52.136719 41.632812 52.25 42.632812 52.25 Z M 42.632812 52.25 "/><path style=" stroke:none;fill-rule:nonzero;fill:#ffffff;fill-opacity:1;" d="M 53.226562 44.808594 C 53.28125 44.828125 53.355469 44.828125 53.410156 44.828125 C 53.726562 44.828125 54.019531 44.644531 54.113281 44.347656 C 54.371094 43.460938 54.519531 42.539062 54.519531 41.617188 C 54.519531 41.265625 54.1875 40.96875 53.796875 40.96875 C 53.390625 40.96875 53.078125 41.265625 53.078125 41.617188 C 53.078125 42.429688 52.96875 43.242188 52.726562 44.015625 C 52.617188 44.367188 52.839844 44.71875 53.226562 44.808594 Z M 53.226562 44.808594 "/><path style=" stroke:none;fill-rule:nonzero;fill:#ffffff;fill-opacity:1;" d="M 50.050781 48.1875 C 49.773438 48.445312 49.773438 48.851562 50.050781 49.109375 C 50.199219 49.238281 50.382812 49.292969 50.570312 49.292969 C 50.753906 49.292969 50.9375 49.238281 51.085938 49.109375 C 51.804688 48.445312 52.433594 47.707031 52.949219 46.914062 C 53.152344 46.601562 53.023438 46.210938 52.691406 46.027344 C 52.339844 45.84375 51.898438 45.953125 51.695312 46.269531 C 51.234375 46.96875 50.679688 47.613281 50.050781 48.1875 Z M 50.050781 48.1875 "/><path style=" stroke:none;fill-rule:nonzero;fill:#ffffff;fill-opacity:1;" d="M 53.78125 32.277344 L 53.78125 34.492188 C 53.78125 34.730469 53.910156 34.933594 54.148438 35.046875 C 54.261719 35.101562 54.390625 35.136719 54.519531 35.136719 C 54.648438 35.136719 54.777344 35.101562 54.886719 35.046875 L 60.40625 32.203125 C 60.628906 32.09375 60.777344 31.871094 60.777344 31.648438 C 60.777344 31.410156 60.644531 31.207031 60.40625 31.09375 L 54.886719 28.253906 C 54.667969 28.140625 54.390625 28.140625 54.167969 28.253906 C 53.945312 28.363281 53.796875 28.585938 53.796875 28.804688 L 53.796875 31.019531 C 53.464844 31.078125 53.226562 31.335938 53.226562 31.648438 C 53.1875 31.960938 53.449219 32.222656 53.78125 32.277344 Z M 53.78125 32.277344 "/><path style=" stroke:none;fill-rule:nonzero;fill:#ffffff;fill-opacity:1;" d="M 32.496094 37.390625 C 32.609375 37.445312 32.738281 37.464844 32.847656 37.464844 C 33.105469 37.464844 33.347656 37.335938 33.496094 37.132812 C 33.9375 36.429688 34.472656 35.765625 35.101562 35.175781 C 35.378906 34.914062 35.359375 34.511719 35.082031 34.25 C 34.785156 34.011719 34.324219 34.011719 34.046875 34.269531 C 33.328125 34.933594 32.71875 35.691406 32.222656 36.503906 C 32.019531 36.835938 32.148438 37.222656 32.496094 37.390625 Z M 32.496094 37.390625 "/><path style=" stroke:none;fill-rule:nonzero;fill:#ffffff;fill-opacity:1;" d="M 36.796875 33.753906 C 36.929688 33.753906 37.058594 33.714844 37.1875 33.660156 C 37.960938 33.238281 38.792969 32.902344 39.660156 32.683594 C 40.046875 32.570312 40.269531 32.222656 40.140625 31.871094 C 40.027344 31.519531 39.621094 31.335938 39.234375 31.425781 C 38.238281 31.6875 37.296875 32.074219 36.410156 32.554688 C 36.078125 32.738281 35.96875 33.144531 36.171875 33.4375 C 36.320312 33.640625 36.558594 33.753906 36.796875 33.753906 Z M 36.796875 33.753906 "/><path style=" stroke:none;fill-rule:nonzero;fill:#ffffff;fill-opacity:1;" d="M 42.300781 32.296875 L 42.316406 32.296875 C 42.410156 32.296875 42.519531 32.296875 42.632812 32.296875 L 45.214844 32.296875 C 45.621094 32.296875 45.933594 32 45.933594 31.648438 C 45.933594 31.296875 45.601562 31.003906 45.214844 31.003906 L 42.632812 31.003906 C 42.519531 31.003906 42.390625 31.003906 42.28125 31.003906 C 41.875 31.019531 41.5625 31.316406 41.578125 31.667969 C 41.597656 32.019531 41.910156 32.296875 42.300781 32.296875 Z M 42.300781 32.296875 "/><path style=" stroke:none;fill-rule:nonzero;fill:#ffffff;fill-opacity:1;" d="M 48.113281 32.296875 L 51.011719 32.296875 C 51.417969 32.296875 51.730469 32 51.730469 31.648438 C 51.730469 31.296875 51.398438 31.003906 51.011719 31.003906 L 48.113281 31.003906 C 47.707031 31.003906 47.394531 31.296875 47.394531 31.648438 C 47.394531 32 47.707031 32.296875 48.113281 32.296875 Z M 48.113281 32.296875 "/></g></svg>