<svg xmlns="http://www.w3.org/2000/svg" xmlns:xlink="http://www.w3.org/1999/xlink" width="150" zoomAndPan="magnify" viewBox="0 0 112.5 112.499997" height="150" preserveAspectRatio="xMidYMid meet" version="1.2"><defs><clipPath id="d871bd528f"><path d="M 0 0 L 112.003906 0 L 112.003906 112.003906 L 0 112.003906 Z M 0 0 "/></clipPath><clipPath id="8865a6ec75"><path d="M 17.101562 76 L 94.757812 76 L 94.757812 83.917969 L 17.101562 83.917969 Z M 17.101562 76 "/></clipPath><clipPath id="80a92ce137"><path d="M 27 21.195312 L 47 21.195312 L 47 71 L 27 71 Z M 27 21.195312 "/></clipPath><clipPath id="9064dd9073"><path d="M 64 21.195312 L 85 21.195312 L 85 71 L 64 71 Z M 64 21.195312 "/></clipPath></defs><g id="7037c5207b"><g clip-rule="nonzero" clip-path="url(#d871bd528f)"><path style=" stroke:none;fill-rule:nonzero;fill:#ffffff;fill-opacity:1;" d="M 0 0 L 112.003906 0 L 112.003906 112.003906 L 0 112.003906 Z M 0 0 "/><path style=" stroke:none;fill-rule:nonzero;fill:#ffffff;fill-opacity:1;" d="M 0 0 L 112.003906 0 L 112.003906 112.003906 L 0 112.003906 Z M 0 0 "/></g><path style=" stroke:none;fill-rule:evenodd;fill:#1f8578;fill-opacity:1;" d="M 55.933594 74.515625 C 55.933594 74.515625 37.945312 66.507812 18.148438 78.832031 C 18.148438 78.832031 38.921875 70.199219 55.933594 77.929688 C 72.941406 70.199219 93.714844 78.832031 93.714844 78.832031 C 73.914062 66.507812 55.933594 74.515625 55.933594 74.515625 Z M 55.933594 74.515625 "/><g clip-rule="nonzero" clip-path="url(#8865a6ec75)"><path style=" stroke:none;fill-rule:evenodd;fill:#1f8578;fill-opacity:1;" d="M 55.933594 79.40625 C 55.933594 79.40625 35.925781 71.835938 17.101562 82.175781 C 17.101562 82.175781 38.921875 76.1875 55.933594 83.914062 C 72.941406 76.1875 94.757812 82.175781 94.757812 82.175781 C 75.9375 71.835938 55.933594 79.40625 55.933594 79.40625 Z M 55.933594 79.40625 "/></g><g clip-rule="nonzero" clip-path="url(#80a92ce137)"><path style=" stroke:none;fill-rule:evenodd;fill:#1f8578;fill-opacity:1;" d="M 37.984375 70.789062 C 31.324219 65.550781 27.054688 57.460938 27.054688 48.386719 C 27.054688 35.699219 35.394531 24.945312 46.9375 21.203125 C 37.117188 25.082031 30.121094 35.128906 30.121094 46.914062 C 30.121094 57.058594 35.304688 65.914062 43.007812 70.660156 C 41.320312 70.605469 39.644531 70.652344 37.984375 70.789062 Z M 37.984375 70.789062 "/></g><g clip-rule="nonzero" clip-path="url(#9064dd9073)"><path style=" stroke:none;fill-rule:evenodd;fill:#1f8578;fill-opacity:1;" d="M 64.925781 21.203125 C 76.46875 24.945312 84.808594 35.699219 84.808594 48.386719 C 84.808594 57.460938 80.539062 65.550781 73.878906 70.789062 C 72.21875 70.652344 70.542969 70.605469 68.851562 70.660156 C 76.558594 65.914062 81.742188 57.058594 81.742188 46.914062 C 81.742188 35.128906 74.746094 25.082031 64.925781 21.203125 Z M 64.925781 21.203125 "/></g><path style=" stroke:none;fill-rule:evenodd;fill:#1f8578;fill-opacity:1;" d="M 67.816406 25.144531 C 74.914062 29.476562 79.6875 37.574219 79.6875 46.84375 C 79.6875 60.679688 69.050781 71.898438 55.933594 71.898438 C 42.8125 71.898438 32.175781 60.679688 32.175781 46.84375 C 32.175781 37.574219 36.949219 29.476562 44.042969 25.144531 C 38.214844 29.214844 34.367188 36.195312 34.367188 44.125 C 34.367188 56.6875 44.019531 66.871094 55.933594 66.871094 C 67.839844 66.871094 77.496094 56.6875 77.496094 44.125 C 77.496094 36.195312 73.648438 29.214844 67.816406 25.144531 Z M 67.816406 25.144531 "/><path style=" stroke:none;fill-rule:evenodd;fill:#1f8578;fill-opacity:1;" d="M 55.429688 49.125 L 55.429688 59.386719 C 55.429688 59.386719 50.078125 52.40625 39.914062 52.40625 L 42.539062 42.617188 C 42.539062 42.617188 51.773438 44.367188 55.429688 49.125 Z M 55.429688 49.125 "/><path style=" stroke:none;fill-rule:evenodd;fill:#1f8578;fill-opacity:1;" d="M 56.433594 49.125 L 56.433594 59.386719 C 56.433594 59.386719 61.78125 52.40625 71.949219 52.40625 L 69.324219 42.617188 C 69.324219 42.617188 60.085938 44.367188 56.433594 49.125 Z M 56.433594 49.125 "/><path style=" stroke:none;fill-rule:evenodd;fill:#1f8578;fill-opacity:1;" d="M 55.429688 60.550781 L 55.429688 62.691406 C 55.429688 62.691406 49.523438 55.367188 40.574219 53.621094 C 40.574219 53.621094 48.648438 53.410156 55.429688 60.550781 Z M 55.429688 60.550781 "/><path style=" stroke:none;fill-rule:evenodd;fill:#1f8578;fill-opacity:1;" d="M 56.433594 60.550781 L 56.433594 62.691406 C 56.433594 62.691406 62.339844 55.367188 71.289062 53.621094 C 71.289062 53.621094 63.210938 53.410156 56.433594 60.550781 Z M 56.433594 60.550781 "/><path style=" stroke:none;fill-rule:nonzero;fill:#1f8578;fill-opacity:1;" d="M 60.058594 40.847656 C 60.058594 41.117188 60.03125 41.386719 59.980469 41.652344 C 59.925781 41.917969 59.847656 42.175781 59.746094 42.425781 C 59.640625 42.675781 59.515625 42.910156 59.363281 43.136719 C 59.210938 43.363281 59.042969 43.570312 58.851562 43.761719 C 58.660156 43.953125 58.449219 44.125 58.222656 44.273438 C 58 44.425781 57.761719 44.550781 57.511719 44.65625 C 57.261719 44.757812 57.003906 44.835938 56.738281 44.890625 C 56.472656 44.941406 56.203125 44.96875 55.933594 44.96875 C 55.660156 44.96875 55.390625 44.941406 55.125 44.890625 C 54.859375 44.835938 54.601562 44.757812 54.351562 44.65625 C 54.101562 44.550781 53.863281 44.425781 53.640625 44.273438 C 53.414062 44.125 53.207031 43.953125 53.011719 43.761719 C 52.820312 43.570312 52.652344 43.363281 52.5 43.136719 C 52.351562 42.910156 52.222656 42.675781 52.117188 42.425781 C 52.015625 42.175781 51.9375 41.917969 51.882812 41.652344 C 51.832031 41.386719 51.804688 41.117188 51.804688 40.847656 C 51.804688 40.574219 51.832031 40.308594 51.882812 40.042969 C 51.9375 39.777344 52.015625 39.519531 52.117188 39.269531 C 52.222656 39.019531 52.351562 38.78125 52.5 38.558594 C 52.652344 38.332031 52.820312 38.125 53.011719 37.933594 C 53.207031 37.742188 53.414062 37.570312 53.640625 37.417969 C 53.863281 37.269531 54.101562 37.140625 54.351562 37.039062 C 54.601562 36.933594 54.859375 36.855469 55.125 36.804688 C 55.390625 36.75 55.660156 36.726562 55.933594 36.726562 C 56.203125 36.726562 56.472656 36.75 56.738281 36.804688 C 57.003906 36.855469 57.261719 36.933594 57.511719 37.039062 C 57.761719 37.140625 58 37.269531 58.222656 37.417969 C 58.449219 37.570312 58.660156 37.742188 58.851562 37.933594 C 59.042969 38.125 59.210938 38.332031 59.363281 38.558594 C 59.515625 38.78125 59.640625 39.019531 59.746094 39.269531 C 59.847656 39.519531 59.925781 39.777344 59.980469 40.042969 C 60.03125 40.308594 60.058594 40.574219 60.058594 40.847656 Z M 60.058594 40.847656 "/><path style=" stroke:none;fill-rule:evenodd;fill:#1f8578;fill-opacity:1;" d="M 55.980469 33.757812 L 55.042969 27.027344 C 55.632812 26.945312 56.230469 26.941406 56.820312 27.015625 Z M 55.980469 33.757812 "/><path style=" stroke:none;fill-rule:evenodd;fill:#1f8578;fill-opacity:1;" d="M 52.714844 34.605469 L 48.535156 29.246094 C 49.003906 28.878906 49.519531 28.578125 50.066406 28.347656 Z M 52.714844 34.605469 "/><path style=" stroke:none;fill-rule:evenodd;fill:#1f8578;fill-opacity:1;" d="M 50.316406 36.972656 L 44.011719 34.414062 C 44.234375 33.863281 44.527344 33.347656 44.886719 32.871094 Z M 50.316406 36.972656 "/><path style=" stroke:none;fill-rule:evenodd;fill:#1f8578;fill-opacity:1;" d="M 49.417969 40.21875 L 42.679688 41.152344 C 42.597656 40.566406 42.59375 39.96875 42.667969 39.378906 Z M 49.417969 40.21875 "/><path style=" stroke:none;fill-rule:evenodd;fill:#1f8578;fill-opacity:1;" d="M 59.148438 34.605469 L 63.328125 29.246094 C 62.859375 28.878906 62.34375 28.578125 61.796875 28.347656 Z M 59.148438 34.605469 "/><path style=" stroke:none;fill-rule:evenodd;fill:#1f8578;fill-opacity:1;" d="M 61.550781 36.972656 L 67.851562 34.414062 C 67.628906 33.863281 67.335938 33.347656 66.976562 32.871094 Z M 61.550781 36.972656 "/><path style=" stroke:none;fill-rule:evenodd;fill:#1f8578;fill-opacity:1;" d="M 62.445312 40.21875 L 69.183594 41.152344 C 69.265625 40.566406 69.269531 39.96875 69.199219 39.378906 Z M 62.445312 40.21875 "/></g></svg>