<svg xmlns="http://www.w3.org/2000/svg" xmlns:xlink="http://www.w3.org/1999/xlink" width="150" zoomAndPan="magnify" viewBox="0 0 112.5 112.499997" height="150" preserveAspectRatio="xMidYMid meet" version="1.2"><defs><clipPath id="8af7b925f5"><path d="M 11.199219 11.199219 L 102 11.199219 L 102 101 L 11.199219 101 Z M 11.199219 11.199219 "/></clipPath></defs><g id="d2670b10e0"><g clip-rule="nonzero" clip-path="url(#8af7b925f5)"><path style=" stroke:none;fill-rule:nonzero;fill:#e0f2f1;fill-opacity:1;" d="M 56.75 11.210938 C 54.96875 11.210938 53.175781 11.902344 51.820312 13.253906 L 42.757812 22.308594 L 29.945312 22.308594 C 26.109375 22.308594 22.976562 25.4375 22.976562 29.265625 L 22.976562 42.066406 L 13.914062 51.117188 C 11.199219 53.828125 11.199219 58.253906 13.914062 60.964844 L 22.976562 70.015625 L 22.976562 82.816406 C 22.976562 86.644531 26.109375 89.777344 29.945312 89.777344 L 42.757812 89.777344 L 51.820312 98.828125 C 54.535156 101.535156 58.964844 101.535156 61.675781 98.828125 L 70.738281 89.777344 L 83.554688 89.777344 C 87.390625 89.777344 90.523438 86.644531 90.523438 82.816406 L 90.523438 70.015625 L 99.585938 60.964844 C 102.296875 58.253906 102.296875 53.828125 99.585938 51.117188 L 90.523438 42.066406 L 90.523438 29.265625 C 90.523438 25.4375 87.390625 22.308594 83.554688 22.308594 L 70.738281 22.308594 L 61.675781 13.253906 C 60.320312 11.902344 58.53125 11.210938 56.75 11.210938 Z M 56.75 11.210938 "/></g><path style=" stroke:none;fill-rule:nonzero;fill:#4db6ac;fill-opacity:1;" d="M 56.75 14.070312 C 55.703125 14.070312 54.664062 14.464844 53.851562 15.273438 L 44.324219 24.792969 C 44.085938 25.03125 43.757812 25.167969 43.417969 25.167969 L 29.945312 25.167969 C 27.652344 25.167969 25.847656 26.96875 25.847656 29.257812 L 25.847656 42.71875 C 25.847656 43.054688 25.714844 43.382812 25.472656 43.621094 L 15.945312 53.140625 C 14.324219 54.757812 14.324219 57.308594 15.945312 58.925781 L 25.472656 68.441406 C 25.710938 68.683594 25.847656 69.007812 25.847656 69.347656 L 25.847656 82.804688 C 25.847656 85.09375 27.652344 86.898438 29.945312 86.898438 L 43.417969 86.898438 C 43.757812 86.898438 44.085938 87.03125 44.324219 87.273438 L 53.851562 96.789062 C 55.472656 98.40625 58.027344 98.40625 59.644531 96.789062 L 69.171875 87.273438 C 69.414062 87.03125 69.738281 86.898438 70.078125 86.898438 L 83.554688 86.898438 C 85.847656 86.898438 87.652344 85.09375 87.652344 82.804688 L 87.652344 69.347656 C 87.652344 69.007812 87.785156 68.683594 88.027344 68.441406 L 97.554688 58.925781 C 99.171875 57.308594 99.171875 54.757812 97.554688 53.140625 L 88.027344 43.621094 C 87.785156 43.382812 87.652344 43.054688 87.652344 42.71875 L 87.652344 29.257812 C 87.652344 26.96875 85.84375 25.167969 83.554688 25.167969 L 70.078125 25.167969 C 69.738281 25.167969 69.414062 25.03125 69.171875 24.792969 L 59.644531 15.273438 C 58.835938 14.464844 57.796875 14.070312 56.75 14.070312 Z M 56.75 14.070312 "/><path style=" stroke:none;fill-rule:nonzero;fill:#009688;fill-opacity:1;" d="M 70.179688 35.125 L 68.90625 34.367188 L 43.023438 35.59375 C 42.964844 35.59375 43.015625 35.710938 43.007812 35.765625 L 42.3125 36.457031 C 42.257812 36.46875 42.140625 36.414062 42.140625 36.476562 L 40.308594 72.371094 L 41.207031 73.625 C 41.234375 73.667969 41.265625 73.714844 41.296875 73.757812 C 41.304688 73.773438 41.3125 73.785156 41.324219 73.796875 C 41.34375 73.828125 41.367188 73.859375 41.390625 73.890625 C 41.402344 73.910156 41.417969 73.929688 41.433594 73.949219 C 41.453125 73.972656 41.472656 73.996094 41.492188 74.023438 C 41.503906 74.042969 41.523438 74.0625 41.539062 74.082031 C 41.558594 74.105469 41.578125 74.128906 41.597656 74.15625 C 41.613281 74.175781 41.628906 74.195312 41.648438 74.210938 C 41.667969 74.234375 41.6875 74.257812 41.707031 74.28125 C 41.726562 74.304688 41.742188 74.324219 41.761719 74.34375 C 41.78125 74.367188 41.800781 74.390625 41.824219 74.410156 C 41.839844 74.429688 41.859375 74.449219 41.878906 74.472656 C 41.902344 74.496094 41.921875 74.519531 41.945312 74.542969 C 41.964844 74.558594 41.980469 74.574219 41.996094 74.59375 C 42.011719 74.605469 42.023438 74.621094 42.035156 74.632812 L 61.925781 94.5 L 69.167969 87.269531 C 69.40625 87.03125 69.734375 86.894531 70.074219 86.894531 L 83.546875 86.894531 C 85.839844 86.894531 87.644531 85.09375 87.644531 82.804688 L 87.644531 69.34375 C 87.644531 69.003906 87.777344 68.679688 88.019531 68.441406 L 95.953125 60.515625 L 72.046875 36.636719 C 72.042969 36.632812 72.039062 36.628906 72.035156 36.625 C 72.019531 36.609375 72 36.59375 71.984375 36.578125 C 71.96875 36.558594 71.949219 36.542969 71.929688 36.523438 C 71.910156 36.507812 71.894531 36.492188 71.875 36.472656 C 71.859375 36.457031 71.839844 36.4375 71.820312 36.421875 C 71.800781 36.402344 71.78125 36.386719 71.761719 36.371094 C 71.746094 36.355469 71.726562 36.335938 71.710938 36.320312 C 71.699219 36.3125 71.6875 36.300781 71.675781 36.289062 C 71.625 36.246094 71.574219 36.203125 71.523438 36.160156 C 71.488281 36.132812 71.457031 36.105469 71.421875 36.078125 C 71.378906 36.039062 71.332031 36.003906 71.285156 35.96875 C 71.253906 35.941406 71.21875 35.910156 71.183594 35.886719 C 71.132812 35.84375 71.082031 35.804688 71.03125 35.765625 C 71 35.742188 70.972656 35.71875 70.941406 35.699219 C 70.886719 35.65625 70.835938 35.617188 70.78125 35.574219 C 70.746094 35.550781 70.714844 35.523438 70.679688 35.5 C 70.515625 35.375 70.347656 35.253906 70.179688 35.125 Z M 70.179688 35.125 "/><path style=" stroke:none;fill-rule:nonzero;fill:#26a69a;fill-opacity:1;" d="M 41.703125 35.050781 L 68.480469 35.050781 C 68.558594 35.050781 68.621094 35.113281 68.621094 35.1875 L 68.621094 71.277344 C 68.621094 71.355469 68.558594 71.414062 68.480469 71.414062 L 41.703125 71.414062 C 41.625 71.414062 41.566406 71.355469 41.566406 71.277344 L 41.566406 35.1875 C 41.566406 35.113281 41.625 35.050781 41.703125 35.050781 Z M 41.703125 35.050781 "/><path style=" stroke:none;fill-rule:nonzero;fill:#ffffff;fill-opacity:1;" d="M 40.984375 34.207031 C 40.496094 34.207031 40.101562 34.597656 40.101562 35.089844 L 40.101562 71.808594 C 40.101562 72.296875 40.496094 72.6875 40.984375 72.6875 L 68.390625 72.6875 C 68.878906 72.6875 69.273438 72.296875 69.273438 71.808594 L 69.273438 35.089844 C 69.273438 34.597656 68.878906 34.207031 68.390625 34.207031 Z M 70.171875 35.125 L 70.171875 72.742188 C 70.171875 72.800781 70.164062 72.859375 70.152344 72.914062 C 71.859375 73.503906 72.816406 74.507812 73.355469 75.742188 C 73.359375 75.710938 73.359375 75.679688 73.359375 75.648438 L 73.359375 38.929688 C 72.894531 37.058594 71.585938 36.191406 70.171875 35.128906 Z M 44.921875 38.183594 L 65.554688 38.183594 C 66.328125 38.183594 66.964844 38.820312 66.964844 39.589844 L 66.964844 67.492188 C 66.964844 68.261719 66.328125 68.894531 65.554688 68.894531 L 44.921875 68.894531 C 44.148438 68.894531 43.511719 68.261719 43.511719 67.492188 L 43.511719 39.589844 C 43.511719 38.820312 44.148438 38.183594 44.921875 38.183594 Z M 44.921875 39.15625 C 44.671875 39.15625 44.488281 39.34375 44.488281 39.589844 L 44.488281 52.871094 C 45.277344 52.375 45.703125 51.628906 46.230469 50.914062 C 46.378906 50.007812 46.714844 49.308594 47.242188 48.851562 C 47.625 48.515625 48.089844 48.328125 48.589844 48.25 C 48.40625 47.417969 48.648438 46.644531 49.175781 46.160156 C 49.707031 45.671875 50.46875 45.464844 51.246094 45.578125 C 51.148438 44.785156 51.207031 44.128906 51.40625 43.589844 C 51.644531 42.941406 52.058594 42.472656 52.488281 42.058594 C 53.324219 41.253906 54.214844 40.640625 54.710938 39.15625 Z M 55.765625 39.15625 C 56.269531 40.664062 57.183594 41.277344 58.03125 42.101562 C 58.464844 42.523438 58.878906 43.011719 59.105469 43.6875 C 59.277344 44.207031 59.328125 44.824219 59.234375 45.574219 C 59.988281 45.464844 60.71875 45.660156 61.25 46.113281 C 61.808594 46.597656 62.074219 47.390625 61.886719 48.25 C 62.417969 48.332031 62.910156 48.539062 63.304688 48.914062 C 63.84375 49.417969 64.167969 50.179688 64.289062 51.175781 C 64.765625 51.855469 65.207031 52.523438 65.988281 52.957031 L 65.988281 39.589844 C 65.988281 39.34375 65.804688 39.15625 65.554688 39.15625 Z M 55.238281 40.394531 L 55.15625 40.535156 C 54.550781 41.582031 53.746094 42.199219 53.160156 42.757812 C 52.773438 43.132812 52.484375 43.476562 52.320312 43.925781 C 52.152344 44.375 52.09375 44.960938 52.269531 45.859375 L 52.304688 46.046875 L 52.203125 46.207031 C 52.171875 46.261719 52.140625 46.320312 52.109375 46.382812 L 51.925781 46.789062 L 51.503906 46.636719 C 50.839844 46.394531 50.199219 46.542969 49.832031 46.875 C 49.46875 47.210938 49.304688 47.699219 49.691406 48.480469 L 50.050781 49.207031 L 49.238281 49.179688 C 48.652344 49.160156 48.214844 49.289062 47.882812 49.582031 C 47.546875 49.871094 47.28125 50.363281 47.164062 51.183594 L 47.144531 51.304688 L 47.070312 51.402344 C 46.625 52.003906 46.140625 52.875 45.25 53.523438 L 45.105469 53.601562 L 45.253906 53.679688 C 46.140625 54.328125 46.625 55.199219 47.070312 55.796875 L 47.144531 55.894531 L 47.164062 56.019531 C 47.28125 56.835938 47.546875 57.328125 47.882812 57.621094 C 48.214844 57.910156 48.652344 58.039062 49.238281 58.019531 L 50.050781 57.992188 L 49.691406 58.722656 C 49.304688 59.503906 49.46875 59.992188 49.835938 60.324219 C 50.199219 60.65625 50.839844 60.808594 51.503906 60.566406 L 51.925781 60.410156 L 52.113281 60.820312 C 52.140625 60.882812 52.171875 60.9375 52.203125 60.992188 L 52.304688 61.15625 L 52.269531 61.339844 C 52.09375 62.238281 52.152344 62.824219 52.320312 63.277344 C 52.484375 63.726562 52.773438 64.070312 53.164062 64.441406 C 53.746094 65.003906 54.550781 65.617188 55.15625 66.667969 L 55.242188 66.878906 L 55.324219 66.664062 C 55.941406 65.59375 56.765625 64.976562 57.351562 64.40625 C 57.742188 64.027344 58.023438 63.679688 58.183594 63.207031 C 58.339844 62.738281 58.378906 62.113281 58.171875 61.160156 L 58.136719 60.996094 L 58.207031 60.84375 C 58.21875 60.820312 58.230469 60.800781 58.238281 60.78125 L 58.429688 60.335938 L 58.875 60.527344 C 59.554688 60.8125 60.230469 60.683594 60.613281 60.351562 C 61 60.019531 61.183594 59.523438 60.789062 58.722656 L 60.425781 57.992188 L 61.238281 58.019531 C 61.851562 58.039062 62.300781 57.902344 62.640625 57.582031 C 62.976562 57.261719 63.242188 56.714844 63.335938 55.816406 L 63.335938 55.691406 L 63.425781 55.5625 C 63.832031 54.992188 64.292969 54.246094 65.070312 53.675781 L 65.210938 53.601562 L 65.074219 53.523438 C 64.296875 52.953125 63.832031 52.210938 63.425781 51.636719 L 63.335938 51.511719 L 63.335938 51.386719 C 63.242188 50.484375 62.976562 49.9375 62.640625 49.621094 C 62.296875 49.300781 61.851562 49.160156 61.238281 49.179688 L 60.425781 49.207031 L 60.785156 48.480469 C 61.183594 47.679688 61 47.183594 60.613281 46.851562 C 60.230469 46.519531 59.554688 46.386719 58.875 46.675781 L 58.429688 46.863281 L 58.238281 46.421875 C 58.226562 46.402344 58.21875 46.378906 58.207031 46.355469 L 58.136719 46.207031 L 58.171875 46.042969 C 58.378906 45.089844 58.339844 44.464844 58.183594 43.992188 C 58.023438 43.523438 57.742188 43.175781 57.351562 42.796875 C 56.765625 42.226562 55.941406 41.605469 55.324219 40.535156 Z M 65.988281 54.242188 C 65.207031 54.675781 64.765625 55.34375 64.289062 56.023438 C 64.167969 57.019531 63.84375 57.78125 63.304688 58.289062 C 62.910156 58.660156 62.417969 58.867188 61.886719 58.949219 C 62.074219 59.808594 61.808594 60.605469 61.25 61.085938 C 60.722656 61.539062 59.988281 61.738281 59.234375 61.628906 C 59.328125 62.375 59.277344 62.992188 59.105469 63.515625 C 58.878906 64.1875 58.464844 64.675781 58.03125 65.097656 C 57.207031 65.902344 56.320312 66.503906 55.808594 67.925781 L 65.554688 67.925781 C 65.804688 67.925781 65.992188 67.738281 65.992188 67.488281 Z M 44.488281 54.332031 L 44.488281 67.492188 C 44.488281 67.738281 44.671875 67.925781 44.921875 67.925781 L 54.667969 67.925781 C 54.164062 66.527344 53.300781 65.925781 52.488281 65.140625 C 52.058594 64.730469 51.644531 64.257812 51.40625 63.613281 C 51.207031 63.070312 51.148438 62.417969 51.246094 61.621094 C 50.46875 61.734375 49.707031 61.527344 49.175781 61.042969 C 48.648438 60.558594 48.40625 59.785156 48.589844 58.949219 C 48.089844 58.875 47.625 58.683594 47.242188 58.351562 C 46.714844 57.894531 46.378906 57.191406 46.226562 56.289062 C 45.703125 55.570312 45.277344 54.824219 44.488281 54.332031 Z M 69.464844 73.605469 C 69.410156 73.617188 69.347656 73.625 69.289062 73.625 L 41.195312 73.625 C 42.132812 75.089844 44.289062 76.492188 45.070312 76.527344 L 60.949219 76.527344 C 61.183594 78.011719 61.785156 79.363281 62.492188 80.535156 L 62.746094 80.957031 L 63.164062 80.695312 C 63.742188 80.335938 64.21875 79.925781 64.539062 79.367188 C 65.472656 80.304688 66.8125 80.636719 67.96875 80.859375 L 68.863281 81.027344 L 68.507812 80.191406 C 67.980469 78.941406 67.371094 77.726562 67.085938 76.527344 L 72.476562 76.527344 C 72.527344 76.527344 72.574219 76.523438 72.625 76.515625 C 72.261719 75.125 71.316406 74.089844 69.464844 73.605469 Z M 61.828125 75.472656 L 65.953125 75.472656 C 66.007812 76.988281 66.632812 78.375 67.222656 79.691406 C 66.21875 79.425781 65.316406 79.003906 64.820312 78.152344 L 64.195312 77.085938 L 63.925781 78.289062 C 63.78125 78.921875 63.535156 79.25 63.070312 79.585938 C 62.386719 78.351562 61.886719 76.957031 61.828125 75.472656 Z M 61.828125 75.472656 "/></g></svg>