<svg xmlns="http://www.w3.org/2000/svg" xmlns:xlink="http://www.w3.org/1999/xlink" width="150" zoomAndPan="magnify" viewBox="0 0 112.5 112.499997" height="150" preserveAspectRatio="xMidYMid meet" version="1.2"><defs><clipPath id="d92d5b4700"><path d="M 20.121094 16.589844 L 91.804688 16.589844 L 91.804688 88.273438 L 20.121094 88.273438 Z M 20.121094 16.589844 "/></clipPath><clipPath id="6a02b5198b"><path d="M 72 16.589844 L 91.804688 16.589844 L 91.804688 36 L 72 36 Z M 72 16.589844 "/></clipPath><clipPath id="85d7165b06"><path d="M 54 16.589844 L 91.804688 16.589844 L 91.804688 55 L 54 55 Z M 54 16.589844 "/></clipPath></defs><g id="f8d67583c5"><g clip-rule="nonzero" clip-path="url(#d92d5b4700)"><path style=" stroke:none;fill-rule:nonzero;fill:#de7d1e;fill-opacity:1;" d="M 55.902344 16.78125 C 36.128906 16.78125 20.121094 32.789062 20.121094 52.5625 C 20.121094 72.335938 36.128906 88.34375 55.902344 88.34375 C 75.675781 88.34375 91.683594 72.335938 91.683594 52.5625 C 91.683594 32.789062 75.675781 16.78125 55.902344 16.78125 Z M 55.902344 16.78125 "/></g><path style=" stroke:none;fill-rule:nonzero;fill:#ffffff;fill-opacity:1;" d="M 55.902344 24.3125 C 40.273438 24.3125 27.65625 36.929688 27.65625 52.5625 C 27.65625 68.191406 40.273438 80.808594 55.902344 80.808594 C 71.535156 80.808594 84.152344 68.191406 84.152344 52.5625 C 84.152344 36.929688 71.535156 24.3125 55.902344 24.3125 Z M 55.902344 73.277344 C 44.414062 73.277344 35.1875 64.050781 35.1875 52.5625 C 35.1875 41.074219 44.414062 31.84375 55.902344 31.84375 C 67.390625 31.84375 76.617188 41.074219 76.617188 52.5625 C 76.617188 64.050781 67.390625 73.277344 55.902344 73.277344 Z M 55.902344 39.378906 C 48.558594 39.378906 42.71875 45.214844 42.71875 52.5625 C 42.71875 59.90625 48.558594 65.742188 55.902344 65.742188 C 63.246094 65.742188 69.085938 59.90625 69.085938 52.5625 C 69.085938 45.214844 63.246094 39.378906 55.902344 39.378906 Z M 55.902344 58.210938 C 52.703125 58.210938 50.253906 55.761719 50.253906 52.5625 C 50.253906 49.359375 52.703125 46.910156 55.902344 46.910156 C 59.105469 46.910156 61.554688 49.359375 61.554688 52.5625 C 61.554688 55.761719 59.105469 58.210938 55.902344 58.210938 Z M 55.902344 58.210938 "/><g clip-rule="nonzero" clip-path="url(#6a02b5198b)"><path style=" stroke:none;fill-rule:nonzero;fill:#e9e003;fill-opacity:1;" d="M 91.683594 24.3125 C 91.683594 24.3125 90.554688 28.644531 87.542969 31.46875 C 84.527344 34.480469 72.476562 35.988281 72.476562 35.988281 C 72.476562 35.988281 73.980469 23.746094 76.996094 20.921875 C 79.820312 17.910156 84.152344 16.78125 84.152344 16.78125 L 84.152344 24.3125 Z M 91.683594 24.3125 "/></g><g clip-rule="nonzero" clip-path="url(#85d7165b06)"><path style=" stroke:none;fill-rule:nonzero;fill:#ff3d00;fill-opacity:1;" d="M 91.121094 17.34375 C 90.367188 16.589844 89.238281 16.589844 88.484375 17.34375 L 54.585938 51.242188 C 53.832031 51.996094 53.832031 53.125 54.585938 53.878906 C 54.960938 54.257812 55.527344 54.445312 55.902344 54.445312 C 56.28125 54.445312 56.84375 54.257812 57.222656 53.878906 L 91.121094 19.980469 C 91.871094 19.226562 91.871094 18.097656 91.121094 17.34375 Z M 91.121094 17.34375 "/></g><path style=" stroke:none;fill-rule:nonzero;fill:#d97706;fill-opacity:1;" d="M 84.109375 21.917969 L 86.773438 24.578125 L 75.722656 35.632812 L 73.058594 32.96875 Z M 84.109375 21.917969 "/></g></svg>