<svg xmlns="http://www.w3.org/2000/svg" xmlns:xlink="http://www.w3.org/1999/xlink" width="100" zoomAndPan="magnify" viewBox="0 0 75 74.999997" height="100" preserveAspectRatio="xMidYMid meet" version="1.2"><defs><clipPath id="94dcf9ea7c"><path d="M 16.675781 10.59375 L 62.421875 10.59375 L 62.421875 57.34375 L 16.675781 57.34375 Z M 16.675781 10.59375 "/></clipPath><clipPath id="ba60eb9d31"><path d="M 29.402344 55.648438 L 49.648438 55.648438 L 49.648438 67.472656 L 29.402344 67.472656 Z M 29.402344 55.648438 "/></clipPath></defs><g id="d1b25a56b7"><g clip-rule="nonzero" clip-path="url(#94dcf9ea7c)"><path style=" stroke:none;fill-rule:evenodd;fill:#424242;fill-opacity:1;" d="M 54.503906 16.09375 C 55.359375 16.816406 55.40625 17.921875 55.449219 19.027344 C 55.472656 19.609375 55.496094 20.191406 55.613281 20.332031 C 55.734375 20.472656 56.300781 20.59375 56.867188 20.71875 C 57.941406 20.949219 59.019531 21.183594 59.589844 22.164062 C 60.15625 23.136719 59.835938 24.191406 59.515625 25.25 C 59.34375 25.816406 59.171875 26.386719 59.242188 26.574219 C 59.308594 26.761719 59.804688 27.082031 60.300781 27.402344 C 61.238281 28.007812 62.179688 28.617188 62.386719 29.757812 C 62.585938 30.875 61.9375 31.777344 61.285156 32.683594 C 60.925781 33.1875 60.558594 33.695312 60.558594 33.949219 C 60.558594 34.203125 60.925781 34.710938 61.285156 35.214844 C 61.9375 36.121094 62.585938 37.023438 62.386719 38.140625 C 62.179688 39.28125 61.238281 39.890625 60.300781 40.496094 C 59.804688 40.816406 59.308594 41.136719 59.242188 41.324219 C 59.171875 41.511719 59.34375 42.082031 59.515625 42.652344 C 59.835938 43.707031 60.15625 44.765625 59.589844 45.738281 C 59.019531 46.714844 57.941406 46.949219 56.867188 47.179688 C 56.300781 47.304688 55.734375 47.425781 55.617188 47.566406 C 55.496094 47.707031 55.472656 48.289062 55.449219 48.871094 C 55.40625 49.976562 55.359375 51.082031 54.503906 51.808594 C 53.648438 52.53125 52.5625 52.390625 51.476562 52.25 C 50.894531 52.175781 50.3125 52.101562 50.152344 52.195312 C 49.988281 52.292969 49.765625 52.835938 49.546875 53.375 C 49.128906 54.40625 48.707031 55.441406 47.648438 55.835938 C 46.589844 56.234375 45.609375 55.742188 44.617188 55.246094 C 44.078125 54.976562 43.535156 54.703125 43.320312 54.742188 C 43.113281 54.78125 42.695312 55.21875 42.277344 55.65625 C 41.496094 56.476562 40.710938 57.304688 39.546875 57.304688 L 39.546875 50.742188 C 43.988281 50.742188 48.210938 48.980469 51.351562 45.824219 C 54.492188 42.664062 56.238281 38.417969 56.238281 33.949219 C 56.238281 29.480469 54.492188 25.234375 51.351562 22.074219 C 48.210938 18.917969 43.988281 17.15625 39.546875 17.15625 L 39.546875 10.59375 C 40.710938 10.59375 41.496094 11.421875 42.277344 12.242188 C 42.695312 12.683594 43.113281 13.117188 43.320312 13.15625 C 43.535156 13.195312 44.078125 12.921875 44.617188 12.652344 C 45.609375 12.15625 46.589844 11.664062 47.648438 12.0625 C 48.707031 12.457031 49.128906 13.492188 49.546875 14.523438 C 49.765625 15.0625 49.988281 15.605469 50.152344 15.703125 C 50.3125 15.796875 50.894531 15.722656 51.476562 15.648438 C 52.5625 15.507812 53.648438 15.367188 54.503906 16.09375 Z M 39.546875 49.648438 C 43.703125 49.648438 47.644531 48.003906 50.582031 45.050781 C 53.519531 42.09375 55.152344 38.128906 55.152344 33.949219 C 55.152344 29.769531 53.519531 25.804688 50.582031 22.847656 C 47.644531 19.894531 43.703125 18.25 39.546875 18.25 L 39.546875 22.6875 C 40.34375 22.6875 41.109375 23.117188 41.511719 23.867188 L 41.824219 24.457031 L 41.820312 24.460938 L 44.058594 28.660156 L 49.277344 29.601562 C 49.746094 29.6875 50.171875 29.867188 50.519531 30.203125 C 51.40625 31.058594 51.4375 32.476562 50.585938 33.371094 L 50.125 33.851562 L 50.121094 33.851562 L 46.847656 37.289062 L 47.566406 42.585938 C 47.632812 43.054688 47.585938 43.515625 47.378906 43.945312 C 46.847656 45.058594 45.511719 45.527344 44.40625 44.988281 L 43.40625 44.5 L 39.546875 42.621094 Z M 39.546875 41.378906 L 44.894531 43.976562 L 44.890625 43.980469 C 45.445312 44.25 46.109375 44.015625 46.378906 43.460938 C 46.492188 43.226562 46.515625 42.972656 46.464844 42.738281 L 45.667969 36.902344 L 49.777344 32.59375 L 49.78125 32.59375 C 50.207031 32.148438 50.191406 31.441406 49.75 31.011719 C 49.558594 30.828125 49.320312 30.726562 49.078125 30.703125 L 43.332031 29.664062 L 40.527344 24.402344 L 40.53125 24.398438 C 40.328125 24.023438 39.945312 23.808594 39.546875 23.808594 Z M 39.546875 57.304688 C 38.386719 57.304688 37.597656 56.476562 36.820312 55.65625 C 36.402344 55.21875 35.984375 54.78125 35.773438 54.742188 C 35.5625 54.703125 35.019531 54.976562 34.476562 55.246094 C 33.488281 55.742188 32.507812 56.234375 31.449219 55.835938 C 30.390625 55.441406 29.96875 54.40625 29.550781 53.375 C 29.328125 52.835938 29.109375 52.292969 28.945312 52.195312 C 28.78125 52.101562 28.203125 52.175781 27.621094 52.25 C 26.535156 52.390625 25.445312 52.53125 24.589844 51.808594 C 23.734375 51.082031 23.691406 49.976562 23.644531 48.871094 C 23.621094 48.289062 23.597656 47.707031 23.480469 47.566406 C 23.363281 47.425781 22.796875 47.304688 22.230469 47.179688 C 21.15625 46.949219 20.078125 46.714844 19.507812 45.738281 C 18.941406 44.765625 19.261719 43.707031 19.582031 42.648438 C 19.753906 42.082031 19.925781 41.511719 19.855469 41.324219 C 19.785156 41.136719 19.292969 40.816406 18.792969 40.496094 C 17.859375 39.890625 16.917969 39.28125 16.710938 38.140625 C 16.511719 37.023438 17.15625 36.121094 17.808594 35.214844 C 18.171875 34.710938 18.535156 34.203125 18.535156 33.949219 C 18.535156 33.695312 18.171875 33.1875 17.808594 32.683594 C 17.15625 31.777344 16.511719 30.875 16.710938 29.757812 C 16.917969 28.617188 17.859375 28.007812 18.792969 27.402344 C 19.292969 27.082031 19.785156 26.761719 19.855469 26.574219 C 19.925781 26.386719 19.753906 25.816406 19.582031 25.25 C 19.261719 24.191406 18.941406 23.136719 19.507812 22.164062 C 20.078125 21.183594 21.15625 20.949219 22.230469 20.71875 C 22.796875 20.59375 23.363281 20.472656 23.480469 20.332031 C 23.597656 20.191406 23.621094 19.609375 23.644531 19.027344 C 23.691406 17.921875 23.734375 16.816406 24.589844 16.09375 C 25.445312 15.367188 26.535156 15.507812 27.621094 15.648438 C 28.203125 15.722656 28.78125 15.796875 28.945312 15.703125 C 29.109375 15.605469 29.328125 15.0625 29.550781 14.523438 C 29.96875 13.492188 30.390625 12.457031 31.449219 12.0625 C 32.507812 11.664062 33.488281 12.15625 34.476562 12.652344 C 35.019531 12.921875 35.5625 13.195312 35.773438 13.15625 C 35.984375 13.117188 36.402344 12.683594 36.820312 12.242188 C 37.597656 11.421875 38.386719 10.59375 39.546875 10.59375 L 39.546875 17.15625 C 35.105469 17.15625 30.886719 18.917969 27.746094 22.074219 C 24.605469 25.234375 22.855469 29.480469 22.855469 33.949219 C 22.855469 38.417969 24.605469 42.664062 27.746094 45.824219 C 30.886719 48.980469 35.109375 50.742188 39.546875 50.742188 Z M 39.546875 18.25 C 35.394531 18.25 31.449219 19.894531 28.515625 22.847656 C 25.578125 25.804688 23.945312 29.769531 23.945312 33.949219 C 23.945312 38.128906 25.578125 42.09375 28.515625 45.050781 C 31.449219 48.003906 35.394531 49.648438 39.546875 49.648438 L 39.546875 42.621094 L 34.757812 44.953125 C 34.335938 45.15625 33.886719 45.253906 33.417969 45.191406 C 32.199219 45.023438 31.347656 43.890625 31.515625 42.667969 L 31.664062 41.5625 L 31.667969 41.566406 L 32.25 37.289062 L 28.570312 33.425781 C 28.246094 33.085938 28.011719 32.683594 27.925781 32.214844 C 27.710938 31 28.515625 29.832031 29.726562 29.613281 L 30.699219 29.4375 L 30.699219 29.445312 L 35.039062 28.660156 L 37.542969 23.957031 C 37.769531 23.535156 38.070312 23.183594 38.496094 22.953125 C 38.832031 22.773438 39.191406 22.6875 39.546875 22.6875 Z M 39.546875 23.808594 C 39.371094 23.808594 39.191406 23.851562 39.023438 23.941406 C 38.789062 24.066406 38.621094 24.261719 38.527344 24.484375 L 35.765625 29.664062 L 29.921875 30.722656 L 29.921875 30.71875 C 29.316406 30.828125 28.914062 31.410156 29.023438 32.015625 C 29.070312 32.273438 29.195312 32.492188 29.375 32.652344 L 33.425781 36.902344 L 32.621094 42.820312 L 32.617188 42.820312 C 32.535156 43.433594 32.960938 43.996094 33.570312 44.082031 C 33.820312 44.117188 34.066406 44.0625 34.273438 43.945312 L 39.546875 41.378906 L 39.546875 23.808594 "/></g><g clip-rule="nonzero" clip-path="url(#ba60eb9d31)"><path style=" stroke:none;fill-rule:nonzero;fill:#424242;fill-opacity:1;" d="M 29.523438 55.761719 L 29.523438 66.335938 C 29.523438 66.589844 29.609375 66.84375 29.78125 67.054688 C 30.175781 67.542969 30.886719 67.613281 31.371094 67.214844 L 39.546875 60.480469 L 47.695312 67.1875 C 47.894531 67.367188 48.15625 67.472656 48.441406 67.472656 C 49.066406 67.472656 49.570312 66.964844 49.570312 66.335938 L 49.570312 55.761719 C 49.191406 56.253906 48.710938 56.652344 48.042969 56.902344 C 46.621094 57.433594 45.382812 56.902344 44.113281 56.265625 C 43.96875 56.191406 43.742188 56.070312 43.539062 55.976562 C 43.378906 56.132812 43.207031 56.324219 43.09375 56.445312 C 42.089844 57.496094 41.097656 58.441406 39.546875 58.441406 C 38 58.441406 37.003906 57.496094 36.003906 56.445312 C 35.890625 56.324219 35.71875 56.132812 35.558594 55.976562 C 35.351562 56.070312 35.125 56.191406 34.980469 56.265625 C 33.710938 56.902344 32.476562 57.433594 31.054688 56.902344 C 30.386719 56.652344 29.902344 56.253906 29.523438 55.761719 "/></g></g></svg>