<svg width="18" height="19" viewBox="0 0 18 19" fill="none" xmlns="http://www.w3.org/2000/svg">
<path d="M15 0.5C15.7956 0.5 16.5587 0.816071 17.1213 1.37868C17.6839 1.94129 18 2.70435 18 3.5V15.5C18 16.2956 17.6839 17.0587 17.1213 17.6213C16.5587 18.1839 15.7956 18.5 15 18.5H3C2.20435 18.5 1.44129 18.1839 0.87868 17.6213C0.316071 17.0587 0 16.2956 0 15.5V3.5C0 2.70435 0.316071 1.94129 0.87868 1.37868C1.44129 0.816071 2.20435 0.5 3 0.5H15ZM15 2.5H3C2.73478 2.5 2.48043 2.60536 2.29289 2.79289C2.10536 2.98043 2 3.23478 2 3.5V15.5C2 15.7652 2.10536 16.0196 2.29289 16.2071C2.48043 16.3946 2.73478 16.5 3 16.5H15C15.2652 16.5 15.5196 16.3946 15.7071 16.2071C15.8946 16.0196 16 15.7652 16 15.5V3.5C16 3.23478 15.8946 2.98043 15.7071 2.79289C15.5196 2.60536 15.2652 2.5 15 2.5ZM5 7.5C5.24493 7.50003 5.48134 7.58996 5.66437 7.75272C5.84741 7.91547 5.96434 8.13975 5.993 8.383L6 8.5V13.5C5.99972 13.7549 5.90212 14 5.72715 14.1854C5.55218 14.3707 5.31305 14.4822 5.05861 14.4972C4.80416 14.5121 4.55362 14.4293 4.35817 14.2657C4.16271 14.1021 4.0371 13.8701 4.007 13.617L4 13.5V8.5C4 8.23478 4.10536 7.98043 4.29289 7.79289C4.48043 7.60536 4.73478 7.5 5 7.5ZM8 6.5C8.23419 6.49996 8.46097 6.58213 8.6408 6.73216C8.82062 6.8822 8.94208 7.09059 8.984 7.321C9.18523 7.20431 9.39327 7.09979 9.607 7.008C10.274 6.723 11.273 6.566 12.175 6.849C12.648 6.999 13.123 7.279 13.475 7.756C13.79 8.181 13.96 8.698 13.994 9.279L14 9.5V13.5C13.9997 13.7549 13.9021 14 13.7272 14.1854C13.5522 14.3707 13.313 14.4822 13.0586 14.4972C12.8042 14.5121 12.5536 14.4293 12.3582 14.2657C12.1627 14.1021 12.0371 13.8701 12.007 13.617L12 13.5V9.5C12 9.17 11.92 9.016 11.868 8.945C11.7934 8.85215 11.6905 8.78615 11.575 8.757C11.227 8.647 10.726 8.705 10.393 8.847C9.893 9.061 9.435 9.397 9.123 9.708L9 9.84V13.5C8.99972 13.7549 8.90212 14 8.72715 14.1854C8.55218 14.3707 8.31305 14.4822 8.05861 14.4972C7.80416 14.5121 7.55362 14.4293 7.35817 14.2657C7.16271 14.1021 7.0371 13.8701 7.007 13.617L7 13.5V7.5C7 7.23478 7.10536 6.98043 7.29289 6.79289C7.48043 6.60536 7.73478 6.5 8 6.5ZM5 4.5C5.26522 4.5 5.51957 4.60536 5.70711 4.79289C5.89464 4.98043 6 5.23478 6 5.5C6 5.76522 5.89464 6.01957 5.70711 6.20711C5.51957 6.39464 5.26522 6.5 5 6.5C4.73478 6.5 4.48043 6.39464 4.29289 6.20711C4.10536 6.01957 4 5.76522 4 5.5C4 5.23478 4.10536 4.98043 4.29289 4.79289C4.48043 4.60536 4.73478 4.5 5 4.5Z" fill="#BABABA"/>
</svg>
