<svg xmlns="http://www.w3.org/2000/svg" xmlns:xlink="http://www.w3.org/1999/xlink" width="100" zoomAndPan="magnify" viewBox="0 0 75 74.999997" height="100" preserveAspectRatio="xMidYMid meet" version="1.2"><defs><clipPath id="6b378cfe1e"><path d="M 18.476562 10.101562 L 56.726562 10.101562 L 56.726562 57.351562 L 18.476562 57.351562 Z M 18.476562 10.101562 "/></clipPath><clipPath id="69672518c0"><path d="M 27 10.101562 L 48 10.101562 L 48 19 L 27 19 Z M 27 10.101562 "/></clipPath><clipPath id="b92f0ea0b6"><path d="M 36 10.101562 L 48 10.101562 L 48 19 L 36 19 Z M 36 10.101562 "/></clipPath></defs><g id="bd075ace81"><g clip-rule="nonzero" clip-path="url(#6b378cfe1e)"><path style=" stroke:none;fill-rule:evenodd;fill:#514639;fill-opacity:1;" d="M 41.226562 38.75 L 44.609375 38.75 C 44.65625 38.75 44.699219 38.757812 44.738281 38.773438 L 52.679688 41.289062 C 55.085938 42.054688 56.71875 44.265625 56.71875 46.765625 L 56.71875 56.933594 C 56.71875 57.164062 56.53125 57.347656 56.296875 57.347656 L 18.898438 57.347656 C 18.667969 57.347656 18.480469 57.164062 18.480469 56.933594 L 18.480469 46.761719 C 18.480469 44.265625 20.109375 42.054688 22.515625 41.289062 L 30.4375 38.773438 C 30.476562 38.757812 30.519531 38.75 30.566406 38.75 L 33.96875 38.75 C 30.742188 37.367188 28.488281 34.191406 28.488281 30.496094 L 28.488281 29.714844 L 28.117188 29.714844 C 27.261719 29.714844 26.445312 29.378906 25.84375 28.78125 C 25.242188 28.1875 24.902344 27.378906 24.902344 26.539062 C 24.902344 25.695312 25.242188 24.886719 25.84375 24.292969 C 25.992188 24.144531 26.15625 24.015625 26.328125 23.898438 C 26.320312 23.871094 26.316406 23.839844 26.316406 23.8125 L 26.316406 21.246094 C 26.316406 18.289062 27.503906 15.453125 29.621094 13.363281 C 31.738281 11.273438 34.605469 10.097656 37.597656 10.097656 C 40.589844 10.097656 43.460938 11.273438 45.574219 13.363281 C 47.691406 15.453125 48.878906 18.289062 48.878906 21.246094 L 48.878906 23.8125 C 48.878906 23.839844 48.875 23.871094 48.871094 23.898438 C 49.042969 24.015625 49.203125 24.144531 49.351562 24.292969 C 49.957031 24.886719 50.292969 25.695312 50.292969 26.539062 C 50.292969 27.378906 49.957031 28.1875 49.351562 28.78125 C 48.75 29.378906 47.933594 29.714844 47.082031 29.714844 L 46.707031 29.714844 L 46.707031 30.496094 C 46.707031 34.191406 44.453125 37.367188 41.226562 38.75 Z M 41.226562 38.75 "/></g><path style=" stroke:none;fill-rule:evenodd;fill:#ffffff;fill-opacity:1;" d="M 34.484375 39.582031 L 30.628906 39.582031 L 22.773438 42.078125 C 20.714844 42.734375 19.320312 44.625 19.320312 46.761719 C 19.320312 46.761719 19.320312 56.519531 19.320312 56.519531 L 37.179688 56.519531 L 37.179688 42.054688 C 36.472656 42.019531 35.804688 41.726562 35.304688 41.230469 C 34.851562 40.785156 34.566406 40.203125 34.484375 39.582031 Z M 34.484375 39.582031 "/><path style=" stroke:none;fill-rule:evenodd;fill:#f4f4f4;fill-opacity:1;" d="M 35.347656 56.519531 L 35.347656 42.054688 C 34.640625 42.019531 33.972656 41.726562 33.472656 41.230469 C 33.019531 40.785156 32.734375 40.203125 32.652344 39.582031 L 34.484375 39.582031 C 34.566406 40.203125 34.851562 40.785156 35.304688 41.230469 C 35.804688 41.726562 36.472656 42.019531 37.179688 42.054688 L 37.179688 56.519531 Z M 35.347656 56.519531 "/><path style=" stroke:none;fill-rule:evenodd;fill:#ffffff;fill-opacity:1;" d="M 38.019531 56.519531 L 55.878906 56.519531 L 55.878906 46.765625 C 55.878906 44.625 54.480469 42.734375 52.421875 42.078125 L 44.546875 39.582031 L 40.710938 39.582031 C 40.632812 40.203125 40.347656 40.785156 39.894531 41.230469 C 39.730469 41.390625 39.464844 41.390625 39.300781 41.230469 C 39.136719 41.070312 39.136719 40.804688 39.300781 40.644531 C 39.582031 40.367188 39.769531 40.019531 39.851562 39.640625 L 38.019531 39.640625 Z M 38.019531 56.519531 "/><path style=" stroke:none;fill-rule:evenodd;fill:#f4f4f4;fill-opacity:1;" d="M 53.484375 56.519531 L 53.484375 46.765625 C 53.484375 44.625 52.089844 42.734375 50.027344 42.078125 L 42.152344 39.582031 L 44.546875 39.582031 L 52.421875 42.078125 C 54.480469 42.734375 55.878906 44.625 55.878906 46.765625 L 55.878906 56.519531 Z M 38.308594 39.640625 C 38.261719 39.953125 38.164062 40.253906 38.019531 40.53125 L 38.019531 39.640625 Z M 38.308594 39.640625 "/><path style=" stroke:none;fill-rule:evenodd;fill:#6b6b6b;fill-opacity:1;" d="M 29.445312 31.863281 C 30.101562 35.722656 33.5 38.664062 37.597656 38.664062 C 41.695312 38.664062 45.09375 35.722656 45.753906 31.863281 C 44.261719 34.808594 41.179688 36.832031 37.617188 36.832031 L 37.578125 36.832031 C 34.015625 36.832031 30.933594 34.808594 29.445312 31.863281 Z M 29.445312 31.863281 "/><path style=" stroke:none;fill-rule:evenodd;fill:#676565;fill-opacity:1;" d="M 36.902344 38.636719 C 39.488281 38.425781 41.738281 37.039062 43.101562 35.015625 C 44.210938 34.183594 45.125 33.105469 45.753906 31.863281 C 45.09375 35.722656 41.695312 38.664062 37.597656 38.664062 C 37.363281 38.664062 37.132812 38.65625 36.902344 38.636719 Z M 36.902344 36.808594 C 36.679688 36.824219 36.457031 36.832031 36.230469 36.832031 L 36.191406 36.832031 C 34.132812 36.832031 32.230469 36.15625 30.707031 35.015625 C 30.078125 34.082031 29.640625 33.011719 29.445312 31.863281 C 30.839844 34.621094 33.632812 36.570312 36.902344 36.808594 Z M 36.902344 36.808594 "/><path style=" stroke:none;fill-rule:evenodd;fill:#6b6b6b;fill-opacity:1;" d="M 27.15625 23.507812 C 27.464844 23.410156 27.789062 23.363281 28.117188 23.363281 L 28.488281 23.363281 L 28.488281 21.664062 L 27.15625 21.664062 Z M 27.15625 23.507812 "/><path style=" stroke:none;fill-rule:evenodd;fill:#ffecd2;fill-opacity:1;" d="M 28.488281 24.191406 L 28.117188 24.191406 C 27.484375 24.191406 26.882812 24.4375 26.4375 24.878906 C 25.992188 25.316406 25.742188 25.914062 25.742188 26.539062 C 25.742188 27.160156 25.992188 27.757812 26.4375 28.195312 C 26.882812 28.636719 27.484375 28.882812 28.117188 28.882812 L 28.488281 28.882812 Z M 28.488281 24.191406 "/><path style=" stroke:none;fill-rule:evenodd;fill:#6b6b6b;fill-opacity:1;" d="M 48.039062 21.664062 L 46.707031 21.664062 L 46.707031 23.363281 L 47.082031 23.363281 C 47.410156 23.363281 47.730469 23.410156 48.039062 23.507812 Z M 48.039062 21.664062 "/><path style=" stroke:none;fill-rule:evenodd;fill:#ffecd2;fill-opacity:1;" d="M 46.707031 28.882812 L 47.082031 28.882812 C 47.710938 28.882812 48.3125 28.636719 48.757812 28.195312 C 49.203125 27.757812 49.453125 27.160156 49.453125 26.539062 C 49.453125 25.914062 49.203125 25.316406 48.757812 24.878906 C 48.3125 24.4375 47.710938 24.191406 47.082031 24.191406 L 46.707031 24.191406 Z M 46.707031 28.882812 "/><path style=" stroke:none;fill-rule:evenodd;fill:#f3e3cc;fill-opacity:1;" d="M 47.660156 24.261719 L 47.660156 28.8125 C 47.472656 28.859375 47.277344 28.882812 47.082031 28.882812 L 46.707031 28.882812 L 46.707031 24.191406 L 47.082031 24.191406 C 47.277344 24.191406 47.472656 24.214844 47.660156 24.261719 Z M 47.660156 24.261719 "/><path style=" stroke:none;fill-rule:evenodd;fill:#ffecd2;fill-opacity:1;" d="M 29.328125 21.703125 L 29.328125 27.851562 C 29.328125 32.355469 33.023438 36.003906 37.578125 36.003906 L 37.617188 36.003906 C 42.175781 36.003906 45.867188 32.355469 45.867188 27.851562 L 45.867188 21.703125 Z M 29.328125 21.703125 "/><path style=" stroke:none;fill-rule:evenodd;fill:#f3e3cc;fill-opacity:1;" d="M 36.464844 35.929688 C 40.496094 35.394531 43.605469 31.980469 43.605469 27.851562 L 43.605469 21.703125 L 45.867188 21.703125 L 45.867188 27.851562 C 45.867188 32.355469 42.175781 36.003906 37.617188 36.003906 L 37.578125 36.003906 C 37.199219 36.003906 36.832031 35.980469 36.464844 35.929688 Z M 36.464844 35.929688 "/><path style=" stroke:none;fill-rule:evenodd;fill:#ffffff;fill-opacity:1;" d="M 37.179688 39.640625 L 35.347656 39.640625 C 35.425781 40.019531 35.617188 40.367188 35.898438 40.644531 C 36.242188 40.984375 36.695312 41.191406 37.179688 41.226562 Z M 37.179688 39.640625 "/><path style=" stroke:none;fill-rule:evenodd;fill:#f4f4f4;fill-opacity:1;" d="M 36.429688 41.023438 L 36.429688 39.640625 L 37.179688 39.640625 L 37.179688 41.226562 C 36.917969 41.207031 36.664062 41.136719 36.429688 41.023438 Z M 36.429688 41.023438 "/><path style=" stroke:none;fill-rule:evenodd;fill:#514639;fill-opacity:1;" d="M 39.273438 45.355469 C 39.273438 45.128906 39.460938 44.941406 39.695312 44.941406 C 39.925781 44.941406 40.113281 45.128906 40.113281 45.355469 C 40.113281 45.585938 39.925781 45.769531 39.695312 45.769531 C 39.460938 45.769531 39.273438 45.585938 39.273438 45.355469 Z M 39.273438 45.355469 "/><path style=" stroke:none;fill-rule:evenodd;fill:#514639;fill-opacity:1;" d="M 39.273438 49.914062 C 39.273438 49.6875 39.460938 49.5 39.695312 49.5 C 39.925781 49.5 40.113281 49.6875 40.113281 49.914062 C 40.113281 50.144531 39.925781 50.332031 39.695312 50.332031 C 39.460938 50.332031 39.273438 50.144531 39.273438 49.914062 Z M 39.273438 49.914062 "/><path style=" stroke:none;fill-rule:evenodd;fill:#514639;fill-opacity:1;" d="M 42.066406 45.402344 C 42.066406 45.398438 42.066406 43.789062 42.066406 43.789062 C 42.066406 43.671875 42.117188 43.558594 42.203125 43.480469 C 42.289062 43.402344 42.40625 43.363281 42.523438 43.375 C 44.027344 43.511719 45.542969 43.511719 47.0625 43.375 C 47.183594 43.363281 47.296875 43.402344 47.386719 43.480469 C 47.472656 43.558594 47.523438 43.671875 47.523438 43.789062 L 47.523438 49.152344 C 47.523438 49.34375 47.394531 49.507812 47.207031 49.554688 C 45.605469 49.964844 44 49.914062 42.394531 49.558594 C 42.203125 49.515625 42.066406 49.347656 42.066406 49.152344 Z M 42.066406 45.402344 "/><path style=" stroke:none;fill-rule:evenodd;fill:#b2b2b2;fill-opacity:1;" d="M 42.90625 45.859375 C 42.90625 47.175781 42.90625 48.816406 42.90625 48.816406 C 44.164062 49.058594 45.425781 49.097656 46.683594 48.828125 L 46.683594 45.832031 C 45.425781 45.980469 44.164062 45.980469 42.90625 45.859375 Z M 42.90625 45.859375 "/><path style=" stroke:none;fill-rule:evenodd;fill:#aaaaaa;fill-opacity:1;" d="M 45.695312 45.917969 C 46.023438 45.898438 46.355469 45.871094 46.683594 45.832031 L 46.683594 48.828125 C 46.355469 48.898438 46.023438 48.945312 45.695312 48.976562 C 45.695312 48.308594 45.695312 47.152344 45.695312 45.917969 Z M 45.695312 45.917969 "/><path style=" stroke:none;fill-rule:evenodd;fill:#d1d1d1;fill-opacity:1;" d="M 46.683594 45 L 46.683594 44.238281 C 45.417969 44.328125 44.160156 44.328125 42.90625 44.238281 C 42.90625 44.238281 42.90625 44.558594 42.90625 45.027344 C 44.164062 45.152344 45.425781 45.152344 46.683594 45 Z M 46.683594 45 "/><path style=" stroke:none;fill-rule:evenodd;fill:#c5c5c5;fill-opacity:1;" d="M 45.695312 44.289062 C 46.023438 44.277344 46.351562 44.261719 46.683594 44.238281 L 46.683594 45 C 46.355469 45.039062 46.023438 45.070312 45.695312 45.089844 C 45.695312 44.820312 45.695312 44.554688 45.695312 44.289062 Z M 45.695312 44.289062 "/><path style=" stroke:none;fill-rule:evenodd;fill:#514639;fill-opacity:1;" d="M 39.273438 43.078125 C 39.273438 42.847656 39.460938 42.664062 39.695312 42.664062 C 39.925781 42.664062 40.113281 42.847656 40.113281 43.078125 C 40.113281 43.304688 39.925781 43.492188 39.695312 43.492188 C 39.460938 43.492188 39.273438 43.304688 39.273438 43.078125 Z M 39.273438 43.078125 "/><path style=" stroke:none;fill-rule:evenodd;fill:#514639;fill-opacity:1;" d="M 39.273438 47.636719 C 39.273438 47.40625 39.460938 47.222656 39.695312 47.222656 C 39.925781 47.222656 40.113281 47.40625 40.113281 47.636719 C 40.113281 47.863281 39.925781 48.050781 39.695312 48.050781 C 39.460938 48.050781 39.273438 47.863281 39.273438 47.636719 Z M 39.273438 47.636719 "/><g clip-rule="nonzero" clip-path="url(#69672518c0)"><path style=" stroke:none;fill-rule:evenodd;fill:#d2d2d2;fill-opacity:1;" d="M 47.714844 18.695312 C 47.257812 16.914062 46.320312 15.269531 44.980469 13.949219 C 43.023438 12.015625 40.367188 10.929688 37.597656 10.929688 C 34.828125 10.929688 32.171875 12.015625 30.214844 13.949219 C 28.878906 15.269531 27.941406 16.910156 27.480469 18.6875 L 47.644531 18.6875 C 47.667969 18.6875 47.691406 18.691406 47.714844 18.695312 Z M 47.714844 18.695312 "/></g><g clip-rule="nonzero" clip-path="url(#b92f0ea0b6)"><path style=" stroke:none;fill-rule:evenodd;fill:#c8c8c8;fill-opacity:1;" d="M 44.9375 18.6875 C 44.476562 16.910156 43.542969 15.269531 42.207031 13.949219 C 40.578125 12.339844 38.46875 11.320312 36.210938 11.019531 C 36.667969 10.960938 37.132812 10.929688 37.597656 10.929688 C 40.367188 10.929688 43.023438 12.015625 44.980469 13.949219 C 46.320312 15.269531 47.257812 16.914062 47.714844 18.695312 C 47.691406 18.691406 47.667969 18.6875 47.644531 18.6875 Z M 44.9375 18.6875 "/></g><path style=" stroke:none;fill-rule:evenodd;fill:#a9a9a9;fill-opacity:1;" d="M 27.304688 19.515625 C 27.230469 19.949219 27.183594 20.390625 27.164062 20.835938 L 48.03125 20.835938 C 48.011719 20.367188 47.960938 19.902344 47.878906 19.445312 C 47.8125 19.492188 47.734375 19.515625 47.644531 19.515625 Z M 27.304688 19.515625 "/><path style=" stroke:none;fill-rule:evenodd;fill:#a29f9f;fill-opacity:1;" d="M 45.246094 20.835938 C 45.226562 20.390625 45.179688 19.949219 45.105469 19.515625 L 47.644531 19.515625 C 47.734375 19.515625 47.8125 19.492188 47.878906 19.445312 C 47.960938 19.902344 48.011719 20.367188 48.03125 20.835938 Z M 45.246094 20.835938 "/></g></svg>