<svg width="24" height="25" viewBox="0 0 24 25" fill="none" xmlns="http://www.w3.org/2000/svg">
<path d="M22.0001 17.1076V20.1076C22.0012 20.3861 21.9441 20.6618 21.8326 20.9169C21.721 21.1721 21.5574 21.4012 21.3521 21.5895C21.1469 21.7777 20.9046 21.9211 20.6408 22.0103C20.377 22.0995 20.0974 22.1327 19.8201 22.1076C16.7429 21.7732 13.7871 20.7217 11.1901 19.0376C8.77388 17.5023 6.72539 15.4538 5.19006 13.0376C3.50003 10.4288 2.4483 7.45859 2.12006 4.3676C2.09507 4.09106 2.12793 3.81236 2.21656 3.54922C2.30518 3.28609 2.44763 3.04429 2.63482 2.83922C2.82202 2.63415 3.04986 2.47031 3.30385 2.35812C3.55783 2.24593 3.8324 2.18786 4.11006 2.1876H7.11006C7.59536 2.18282 8.06585 2.35468 8.43382 2.67113C8.80179 2.98758 9.04213 3.42704 9.11005 3.9076C9.23668 4.86766 9.47151 5.81032 9.81006 6.7176C9.9446 7.07552 9.97372 7.46451 9.89396 7.83848C9.81421 8.21244 9.62892 8.55571 9.36005 8.8276L8.09006 10.0976C9.51361 12.6011 11.5865 14.674 14.0901 16.0976L15.3601 14.8276C15.6319 14.5587 15.9752 14.3734 16.3492 14.2937C16.7231 14.2139 17.1121 14.2431 17.4701 14.3776C18.3773 14.7161 19.32 14.951 20.2801 15.0776C20.7658 15.1461 21.2095 15.3908 21.5266 15.7651C21.8437 16.1394 22.0122 16.6172 22.0001 17.1076Z" stroke="#959595" stroke-width="2" stroke-linecap="round" stroke-linejoin="round"/>
</svg>
