<svg xmlns="http://www.w3.org/2000/svg" xmlns:xlink="http://www.w3.org/1999/xlink" width="100" zoomAndPan="magnify" viewBox="0 0 75 74.999997" height="100" preserveAspectRatio="xMidYMid meet" version="1.2"><defs><clipPath id="53d7728b7f"><path d="M 7.5 10.304688 L 62.25 10.304688 L 62.25 65.054688 L 7.5 65.054688 Z M 7.5 10.304688 "/></clipPath></defs><g id="8d7e07d611"><path style=" stroke:none;fill-rule:nonzero;fill:#4d4d4d;fill-opacity:1;" d="M 34.871094 26.019531 C 34.871094 26.019531 41.675781 25.964844 43.886719 30.121094 C 43.886719 30.121094 43.617188 24.941406 43.886719 22.726562 C 43.886719 22.726562 40.863281 19.054688 34.871094 18.136719 C 28.878906 19.054688 25.855469 22.726562 25.855469 22.726562 C 26.125 24.941406 25.855469 30.121094 25.855469 30.121094 C 28.070312 25.964844 34.871094 26.019531 34.871094 26.019531 "/><path style=" stroke:none;fill-rule:nonzero;fill:#4d4d4d;fill-opacity:1;" d="M 27.601562 35.519531 C 27.601562 35.519531 28.679688 41.421875 34.476562 42.035156 C 34.476562 42.035156 28.636719 41.199219 27.492188 32.730469 C 27.492188 32.730469 26.199219 31.382812 25.296875 32.101562 C 24.398438 32.820312 24.902344 35.628906 27.601562 35.519531 "/><path style=" stroke:none;fill-rule:nonzero;fill:#4d4d4d;fill-opacity:1;" d="M 42.25 32.730469 C 41.105469 41.199219 35.269531 42.035156 35.269531 42.035156 C 41.0625 41.421875 42.140625 35.519531 42.140625 35.519531 C 44.839844 35.628906 45.34375 32.820312 44.445312 32.101562 C 43.546875 31.382812 42.25 32.730469 42.25 32.730469 "/><path style=" stroke:none;fill-rule:nonzero;fill:#4d4d4d;fill-opacity:1;" d="M 27.648438 32.480469 C 27.648438 32.480469 29.28125 30.148438 29.492188 27.316406 C 29.492188 27.316406 27.574219 28.117188 25.957031 30.375 C 25.957031 30.375 26.136719 31.707031 27.648438 32.480469 "/><path style=" stroke:none;fill-rule:nonzero;fill:#4d4d4d;fill-opacity:1;" d="M 43.789062 30.375 C 42.167969 28.117188 40.25 27.316406 40.25 27.316406 C 40.464844 30.148438 42.097656 32.480469 42.097656 32.480469 C 43.609375 31.707031 43.789062 30.375 43.789062 30.375 "/><path style=" stroke:none;fill-rule:nonzero;fill:#4d4d4d;fill-opacity:1;" d="M 35.511719 43.601562 C 35.511719 43.601562 35.230469 44.316406 34.871094 44.632812 C 34.515625 44.316406 34.234375 43.601562 34.234375 43.601562 L 31.460938 42.46875 C 31.121094 43.257812 30.4375 43.527344 30.4375 43.527344 L 34.792969 45.523438 L 34.871094 45.5625 L 34.953125 45.523438 L 39.308594 43.527344 C 39.308594 43.527344 38.625 43.257812 38.28125 42.46875 L 35.511719 43.601562 "/><path style=" stroke:none;fill-rule:nonzero;fill:#4d4d4d;fill-opacity:1;" d="M 28.398438 43.878906 C 27.644531 43.949219 26.898438 44.058594 26.152344 44.234375 C 25.78125 44.320312 25.40625 44.425781 25.039062 44.5625 C 24.667969 44.695312 24.304688 44.859375 23.945312 45.09375 C 23.898438 45.125 23.855469 45.15625 23.8125 45.1875 L 23.746094 45.238281 L 23.6875 45.285156 L 23.460938 45.480469 C 23.3125 45.609375 23.171875 45.746094 23.035156 45.886719 C 22.761719 46.167969 22.507812 46.460938 22.269531 46.769531 C 22.152344 46.921875 22.035156 47.074219 21.925781 47.234375 C 21.816406 47.394531 21.703125 47.550781 21.605469 47.714844 C 21.394531 48.035156 21.207031 48.367188 21.019531 48.703125 C 20.660156 49.375 20.351562 50.070312 20.074219 50.773438 C 19.535156 52.191406 19.136719 53.648438 18.917969 55.136719 C 19.527344 53.761719 20.113281 52.398438 20.773438 51.082031 C 21.109375 50.429688 21.449219 49.78125 21.824219 49.15625 L 22.109375 48.695312 C 22.203125 48.539062 22.308594 48.390625 22.40625 48.238281 C 22.503906 48.085938 22.609375 47.941406 22.714844 47.796875 C 22.816406 47.644531 22.925781 47.507812 23.035156 47.363281 C 23.253906 47.078125 23.484375 46.808594 23.726562 46.550781 C 23.847656 46.421875 23.96875 46.296875 24.097656 46.175781 L 24.289062 46 L 24.335938 45.953125 L 24.382812 45.917969 L 24.472656 45.847656 C 24.730469 45.660156 25.039062 45.5 25.359375 45.351562 C 25.679688 45.210938 26.019531 45.082031 26.363281 44.964844 C 27.050781 44.730469 27.761719 44.53125 28.480469 44.34375 C 29.195312 44.152344 29.921875 43.988281 30.652344 43.808594 C 29.898438 43.773438 29.148438 43.816406 28.398438 43.878906 "/><path style=" stroke:none;fill-rule:nonzero;fill:#4d4d4d;fill-opacity:1;" d="M 48.722656 48.703125 C 48.539062 48.367188 48.347656 48.035156 48.140625 47.714844 C 48.039062 47.550781 47.925781 47.394531 47.816406 47.234375 C 47.710938 47.074219 47.59375 46.921875 47.476562 46.769531 C 47.238281 46.460938 46.980469 46.167969 46.710938 45.886719 C 46.570312 45.746094 46.429688 45.609375 46.28125 45.480469 L 46.054688 45.285156 L 46 45.238281 L 45.933594 45.1875 C 45.886719 45.15625 45.84375 45.125 45.800781 45.09375 C 45.441406 44.859375 45.074219 44.695312 44.703125 44.5625 C 44.335938 44.425781 43.964844 44.320312 43.59375 44.234375 C 42.847656 44.058594 42.097656 43.949219 41.347656 43.878906 C 40.597656 43.816406 39.84375 43.773438 39.089844 43.808594 C 39.820312 43.988281 40.546875 44.152344 41.265625 44.34375 C 41.984375 44.53125 42.695312 44.730469 43.382812 44.964844 C 43.726562 45.082031 44.0625 45.210938 44.386719 45.351562 C 44.707031 45.5 45.015625 45.660156 45.273438 45.847656 L 45.363281 45.917969 L 45.40625 45.953125 L 45.453125 46 L 45.648438 46.175781 C 45.773438 46.296875 45.898438 46.421875 46.019531 46.550781 C 46.257812 46.808594 46.492188 47.078125 46.707031 47.363281 C 46.816406 47.507812 46.929688 47.644531 47.03125 47.796875 C 47.132812 47.941406 47.242188 48.085938 47.339844 48.238281 C 47.4375 48.390625 47.542969 48.539062 47.636719 48.695312 L 47.921875 49.15625 C 48.296875 49.78125 48.636719 50.429688 48.972656 51.082031 C 49.628906 52.398438 50.21875 53.761719 50.824219 55.136719 C 50.605469 53.648438 50.207031 52.191406 49.671875 50.773438 C 49.394531 50.070312 49.082031 49.375 48.722656 48.703125 "/><path style=" stroke:none;fill-rule:nonzero;fill:#4d4d4d;fill-opacity:1;" d="M 34.871094 46.136719 C 34.464844 46.136719 34.132812 46.464844 34.132812 46.875 C 34.132812 47.28125 34.464844 47.613281 34.871094 47.613281 C 35.28125 47.613281 35.609375 47.28125 35.609375 46.875 C 35.609375 46.464844 35.28125 46.136719 34.871094 46.136719 "/><path style=" stroke:none;fill-rule:nonzero;fill:#4d4d4d;fill-opacity:1;" d="M 34.871094 50.527344 C 34.464844 50.527344 34.132812 50.855469 34.132812 51.265625 C 34.132812 51.671875 34.464844 52.003906 34.871094 52.003906 C 35.28125 52.003906 35.609375 51.671875 35.609375 51.265625 C 35.609375 50.855469 35.28125 50.527344 34.871094 50.527344 "/><g clip-rule="nonzero" clip-path="url(#53d7728b7f)"><path style=" stroke:none;fill-rule:nonzero;fill:#4d4d4d;fill-opacity:1;" d="M 34.871094 63.101562 C 20.851562 63.101562 9.445312 51.695312 9.445312 37.675781 C 9.445312 23.65625 20.851562 12.25 34.871094 12.25 C 48.890625 12.25 60.296875 23.65625 60.296875 37.675781 C 60.296875 51.695312 48.890625 63.101562 34.871094 63.101562 Z M 34.871094 10.300781 C 19.777344 10.300781 7.496094 22.582031 7.496094 37.675781 C 7.496094 52.769531 19.777344 65.050781 34.871094 65.050781 C 49.964844 65.050781 62.246094 52.769531 62.246094 37.675781 C 62.246094 22.582031 49.964844 10.300781 34.871094 10.300781 "/></g></g></svg>