<svg width="22" height="23" viewBox="0 0 22 23" fill="none" xmlns="http://www.w3.org/2000/svg">
<path d="M21 11.5C21.0017 12.8172 20.7424 14.1216 20.237 15.3379C19.7316 16.5543 18.9901 17.6584 18.0555 18.5865C17.1285 19.5118 16.0283 20.2454 14.8177 20.7454C13.6071 21.2453 12.3098 21.5017 11 21.5C5.47701 21.5 1.00001 17.023 1.00001 11.5C0.996513 8.93589 1.98144 6.46909 3.75001 4.61251C4.68318 3.62781 5.80747 2.84388 7.05407 2.3087C8.30068 1.77352 9.64338 1.49834 11 1.50001C12.3098 1.49831 13.6071 1.75475 14.8177 2.25466C16.0283 2.75458 17.1285 3.48817 18.0555 4.41351C18.9901 5.34162 19.7316 6.44575 20.237 7.66208C20.7424 8.87842 21.0017 10.1829 21 11.5Z" stroke="#BABABA" stroke-width="2" stroke-linecap="round" stroke-linejoin="round"/>
<path d="M21 11.5C19.541 11.5 15.516 10.95 11.9135 12.5315C8.00002 14.25 5.16652 16.916 3.93152 18.5735" stroke="#BABABA" stroke-width="2" stroke-linecap="round" stroke-linejoin="round"/>
<path d="M7.25 2.22705C8.815 3.67155 12.23 7.34905 13.5 11.0001C14.77 14.6511 15.24 19.1401 15.53 20.4176" stroke="#BABABA" stroke-width="2" stroke-linecap="round" stroke-linejoin="round"/>
<path d="M1.07703 10.2501C2.96603 10.3641 7.96653 10.4666 11.1665 9.10011C14.3665 7.73361 17.12 5.22011 18.0645 4.42261M1.75003 15.3066C2.63118 17.4396 4.22038 19.2037 6.25003 20.3021" stroke="#BABABA" stroke-width="2" stroke-linecap="round" stroke-linejoin="round"/>
<path d="M1.00001 11.5C0.996513 8.93589 1.98144 6.46909 3.75001 4.61251C4.68318 3.62781 5.80747 2.84388 7.05407 2.3087C8.30068 1.77352 9.64338 1.49834 11 1.50001M15 2.33201C16.1388 2.83028 17.175 3.53613 18.0555 4.41351C18.9901 5.34162 19.7316 6.44574 20.237 7.66208C20.7424 8.87842 21.0017 10.1829 21 11.5C21 12.731 20.7775 13.9105 20.37 15M11 21.5C12.3098 21.5017 13.6071 21.2453 14.8177 20.7454C16.0283 20.2454 17.1285 19.5118 18.0555 18.5865" stroke="#BABABA" stroke-width="2" stroke-linecap="round" stroke-linejoin="round"/>
</svg>
