<svg width="41" height="41" viewBox="0 0 41 41" fill="none" xmlns="http://www.w3.org/2000/svg">
<path d="M12.4165 14.2166L19.0832 27.55M12.4165 27.55L19.0832 14.2166M35.7499 12.55V29.2166C35.7499 30.9847 35.0475 32.6804 33.7973 33.9307C32.547 35.1809 30.8513 35.8833 29.0832 35.8833H12.4165C10.6484 35.8833 8.95274 35.1809 7.7025 33.9307C6.45226 32.6804 5.74988 30.9847 5.74988 29.2166V12.55C5.74988 10.7818 6.45226 9.08615 7.7025 7.83591C8.95274 6.58566 10.6484 5.88329 12.4165 5.88329H29.0832C30.8513 5.88329 32.547 6.58566 33.7973 7.83591C35.0475 9.08615 35.7499 10.7818 35.7499 12.55Z" stroke="#959595" stroke-width="2" stroke-linecap="round" stroke-linejoin="round"/>
<path d="M29.0832 20.8833V26.55C29.0832 26.6813 29.0573 26.8113 29.0071 26.9326C28.9568 27.054 28.8831 27.1642 28.7903 27.2571C28.6974 27.3499 28.5872 27.4236 28.4659 27.4738C28.3445 27.5241 28.2145 27.55 28.0832 27.55H25.7498C24.8658 27.55 24.0179 27.1988 23.3928 26.5736C22.7677 25.9485 22.4165 25.1007 22.4165 24.2166C22.4165 23.3326 22.7677 22.4847 23.3928 21.8596C24.0179 21.2345 24.8658 20.8833 25.7498 20.8833H29.0832ZM29.0832 20.8833V15.8833" stroke="#959595" stroke-width="2" stroke-linecap="round" stroke-linejoin="round"/>
</svg>
